<?xml version="1.0" encoding="UTF-8" standalone="no"?>
<!-- Created with Inkscape (http://www.inkscape.org/) -->

<svg
   xmlns:dc="http://purl.org/dc/elements/1.1/"
   xmlns:cc="http://creativecommons.org/ns#"
   xmlns:rdf="http://www.w3.org/1999/02/22-rdf-syntax-ns#"
   xmlns:svg="http://www.w3.org/2000/svg"
   xmlns="http://www.w3.org/2000/svg"
   xmlns:sodipodi="http://sodipodi.sourceforge.net/DTD/sodipodi-0.dtd"
   xmlns:inkscape="http://www.inkscape.org/namespaces/inkscape"
   width="159.33978mm"
   height="79.964775mm"
   viewBox="0 0 159.33978 79.964775"
   version="1.1"
   id="svg8"
   inkscape:version="0.92.3 (2405546, 2018-03-11)"
   sodipodi:docname="AdjointToyGeometry.svg">
  <sodipodi:namedview
     id="base"
     pagecolor="#ffffff"
     bordercolor="#666666"
     borderopacity="1.0"
     inkscape:pageopacity="0.0"
     inkscape:pageshadow="2"
     inkscape:zoom="3.3768529"
     inkscape:cx="269.27619"
     inkscape:cy="109.23491"
     inkscape:document-units="mm"
     inkscape:current-layer="layer3"
     showgrid="true"
     inkscape:window-width="3840"
     inkscape:window-height="2055"
     inkscape:window-x="0"
     inkscape:window-y="0"
     inkscape:window-maximized="1"
     inkscape:measure-start="0,0"
     inkscape:measure-end="0,0"
     fit-margin-top="0"
     fit-margin-left="0"
     fit-margin-right="0"
     fit-margin-bottom="0">
    <inkscape:grid
       originy="-184.91346"
       originx="-26.163444"
       type="xygrid"
       id="grid4747"
       spacingx="1.3229167"
       spacingy="1.3229167"
       enabled="true" />
  </sodipodi:namedview>
  <defs
     id="defs2">
    <marker
       inkscape:isstock="true"
       style="overflow:visible;"
       id="Arrow2Mend"
       refX="0.0"
       refY="0.0"
       orient="auto"
       inkscape:stockid="Arrow2Mend">
      <path
         transform="scale(0.6) rotate(180) translate(0,0)"
         d="M 8.7185878,4.0337352 L -2.2072895,0.016013256 L 8.7185884,-4.0017078 C 6.9730900,-1.6296469 6.9831476,1.6157441 8.7185878,4.0337352 z "
         style="fill-rule:evenodd;stroke-width:0.625;stroke-linejoin:round;stroke:#ff0000;stroke-opacity:1;fill:#ff0000;fill-opacity:1"
         id="path5740" />
    </marker>
    <marker
       inkscape:isstock="true"
       style="overflow:visible;"
       id="Arrow2Lend"
       refX="0.0"
       refY="0.0"
       orient="auto"
       inkscape:stockid="Arrow2Lend">
      <path
         transform="scale(1.1) rotate(180) translate(1,0)"
         d="M 8.7185878,4.0337352 L -2.2072895,0.016013256 L 8.7185884,-4.0017078 C 6.9730900,-1.6296469 6.9831476,1.6157441 8.7185878,4.0337352 z "
         style="fill-rule:evenodd;stroke-width:0.625;stroke-linejoin:round;stroke:#000000;stroke-opacity:1;fill:#000000;fill-opacity:1"
         id="path5734" />
    </marker>
  </defs>
  <metadata
     id="metadata5">
    <rdf:RDF>
      <cc:Work
         rdf:about="">
        <dc:format>image/svg+xml</dc:format>
        <dc:type
           rdf:resource="http://purl.org/dc/dcmitype/StillImage" />
        <dc:title></dc:title>
      </cc:Work>
    </rdf:RDF>
  </metadata>
  <g
     style="display:inline"
     transform="translate(-26.163448,-32.121769)"
     inkscape:label="Layer 1"
     inkscape:groupmode="layer"
     id="layer1">
    <rect
       y="45.645828"
       x="171.97929"
       height="52.916664"
       width="13.229166"
       id="rect8527"
       style="opacity:1;fill:#dcdcdc;fill-opacity:1;stroke:none;stroke-width:0.81649655;stroke-linejoin:bevel;stroke-miterlimit:4;stroke-dasharray:none;stroke-dashoffset:0;stroke-opacity:1" />
    <rect
       y="98.5625"
       x="26.458338"
       height="13.229166"
       width="158.75002"
       id="rect8525"
       style="opacity:1;fill:#dcdcdc;fill-opacity:1;stroke:none;stroke-width:1.02150786;stroke-linejoin:bevel;stroke-miterlimit:4;stroke-dasharray:none;stroke-dashoffset:0;stroke-opacity:1" />
    <rect
       style="opacity:1;fill:#dcdcdc;fill-opacity:1;stroke:none;stroke-width:1.02150786;stroke-linejoin:bevel;stroke-miterlimit:4;stroke-dasharray:none;stroke-dashoffset:0;stroke-opacity:1"
       id="rect8474"
       width="158.75002"
       height="13.229166"
       x="26.458332"
       y="32.41666" />
    <rect
       style="opacity:1;fill:#dcdcdc;fill-opacity:1;stroke:none;stroke-width:0.81649655;stroke-linejoin:bevel;stroke-miterlimit:4;stroke-dasharray:none;stroke-dashoffset:0;stroke-opacity:1"
       id="rect8472"
       width="13.229166"
       height="52.916664"
       x="26.458334"
       y="45.645828" />
    <rect
       style="opacity:1;fill:#000000;fill-opacity:0;stroke:#0c00ff;stroke-width:0.58976787;stroke-linejoin:bevel;stroke-miterlimit:4;stroke-dasharray:none;stroke-dashoffset:0;stroke-opacity:1"
       id="rect8452"
       width="158.75002"
       height="79.375008"
       x="26.45833"
       y="32.416664" />
    <circle
       style="opacity:1;fill:#0000ff;fill-opacity:1;stroke:none;stroke-width:1;stroke-linejoin:bevel;stroke-miterlimit:4;stroke-dasharray:0.99999999, 0.99999999;stroke-dashoffset:0;stroke-opacity:1"
       id="path8466"
       cx="72.760406"
       cy="72.104164"
       r="1.3229166" />
    <circle
       r="1.3229166"
       cy="72.104164"
       cx="105.83331"
       id="circle8468"
       style="opacity:1;fill:#0000ff;fill-opacity:1;stroke:none;stroke-width:1;stroke-linejoin:bevel;stroke-miterlimit:4;stroke-dasharray:0.99999999, 0.99999999;stroke-dashoffset:0;stroke-opacity:1" />
    <circle
       style="opacity:1;fill:#0000ff;fill-opacity:1;stroke:none;stroke-width:1;stroke-linejoin:bevel;stroke-miterlimit:4;stroke-dasharray:0.99999999, 0.99999999;stroke-dashoffset:0;stroke-opacity:1"
       id="circle8470"
       cx="138.90627"
       cy="72.104164"
       r="1.3229166" />
    <rect
       y="61.520821"
       x="26.458334"
       height="21.166666"
       width="158.75002"
       id="rect4753"
       style="opacity:0.827;fill:#00ffff;fill-opacity:0.22276426;stroke:none;stroke-width:0;stroke-linejoin:bevel;stroke-miterlimit:4;stroke-dasharray:none;stroke-dashoffset:0;stroke-opacity:1" />
    <g
       id="g4817" />
    <g
       style="fill:#0000ff"
       transform="matrix(0.28242954,0,0,0.28242954,46.790434,49.959632)"
       id="g4945">
      <g
         style="font-style:normal;font-variant:normal;font-weight:normal;font-stretch:normal;letter-spacing:normal;word-spacing:normal;text-anchor:start;fill:#0000ff;fill-opacity:1;fill-rule:evenodd;stroke:#000000;stroke-linecap:butt;stroke-linejoin:miter;stroke-miterlimit:10.43299961;stroke-dasharray:none;stroke-dashoffset:0;stroke-opacity:1"
         id="g4943"
         transform="matrix(0.3,0,0,-0.3,-52.5,222.75)"
         xml:space="preserve"
         stroke-miterlimit="10.433"
         font-style="normal"
         font-variant="normal"
         font-weight="normal"
         font-stretch="normal"
         font-size-adjust="none"
         letter-spacing="normal"
         word-spacing="normal"><path
           style="fill:#0000ff;stroke-width:0"
           inkscape:connector-curvature="0"
           d="m 472.75,418.45 5.83,6.48 c 0.66,0.71 0.96,1.05 5.1,1.05 v 2.34 c -1.75,-0.11 -4.35,-0.15 -4.6,-0.15 -1.25,0 -3.73,0.11 -5.12,0.15 v -2.34 c 0.68,0 1.29,-0.11 1.89,-0.45 -0.21,-0.3 -0.21,-0.39 -0.41,-0.6 l -4.17,-4.68 -4.89,5.73 h 2 v 2.34 c -1.3,-0.04 -4.44,-0.15 -6.03,-0.15 -1.6,0 -3.85,0.11 -5.49,0.15 v -2.34 h 3.53 l 7.79,-9.17 -6.54,-7.33 c -0.84,-0.94 -2.64,-0.94 -5.03,-0.94 v -2.34 c 1.75,0.09 4.35,0.16 4.58,0.16 1.25,0 4.14,-0.11 5.14,-0.16 v 2.34 c -0.89,0 -1.84,0.25 -1.84,0.55 0,0.05 0,0.09 0.34,0.5 l 4.85,5.42 5.46,-6.47 h -1.93 v -2.34 c 1.29,0.05 4.33,0.16 5.98,0.16 1.6,0 3.83,-0.11 5.47,-0.16 v 2.34 h -3.53 z"
           id="path4935" /><path
           style="fill:#0000ff;stroke-width:0"
           inkscape:connector-curvature="0"
           d="m 496.9,434.67 v 0.04 0.04 0.03 0.04 0.03 0.04 0.03 0.03 l -0.01,0.03 v 0.03 0.03 l -0.01,0.03 -0.01,0.03 v 0.02 l -0.01,0.03 -0.01,0.02 -0.01,0.02 -0.01,0.02 -0.01,0.02 -0.02,0.02 -0.01,0.02 -0.02,0.01 -0.02,0.01 -0.02,0.02 -0.02,0.01 h -0.01 l -0.02,0.01 h -0.01 l -0.01,0.01 h -0.02 -0.01 l -0.01,0.01 h -0.02 -0.02 -0.01 -0.02 -0.02 -0.02 l -0.01,0.01 c -0.13,0 -0.22,-0.02 -0.43,-0.18 -0.09,-0.09 -0.54,-0.5 -0.64,-0.5 -0.03,0 -0.07,0 -0.23,0.11 -0.56,0.32 -1.49,0.57 -2.74,0.57 -4.1,0 -4.95,-1.9 -4.95,-3.04 0,-2.34 2.89,-2.79 5.17,-3.14 1.46,-0.22 3.74,-0.57 3.74,-2.26 0,-0.88 -0.72,-2.17 -3.74,-2.17 -1.68,0 -3.32,0.62 -4.07,3.26 -0.13,0.45 -0.16,0.52 -0.58,0.52 -0.52,0 -0.52,-0.19 -0.52,-0.72 v -3.19 c 0,-0.42 0,-0.7 0.39,-0.7 0.21,0 0.22,0.03 0.71,0.5 l 0.64,0.62 c 1.25,-1.09 2.81,-1.12 3.43,-1.12 4.16,0 4.99,2.17 4.99,3.42 0,1.12 -0.63,1.94 -1.56,2.53 -1,0.63 -1.75,0.74 -3.85,1.05 -1.59,0.25 -3.51,0.56 -3.51,1.87 0,0.88 0.96,1.82 3.68,1.82 2.08,0 3.27,-0.82 3.43,-2.54 0.01,-0.37 0.04,-0.53 0.51,-0.53 0.53,0 0.53,0.17 0.53,0.71 z"
           id="path4937" /><path
           style="fill:#0000ff;stroke-width:0"
           inkscape:connector-curvature="0"
           d="m 505.52,429.78 v 0.21 l 0.02,0.22 0.01,0.21 0.03,0.22 0.04,0.21 0.04,0.21 0.05,0.2 0.05,0.21 0.07,0.2 0.07,0.19 0.08,0.19 0.08,0.19 0.1,0.18 0.1,0.18 0.1,0.17 0.12,0.16 0.12,0.16 0.13,0.15 0.13,0.14 0.14,0.14 0.15,0.12 0.16,0.12 0.16,0.11 0.17,0.1 0.17,0.09 0.18,0.08 0.19,0.07 0.19,0.06 0.2,0.05 0.21,0.03 0.21,0.03 0.22,0.01 c -0.03,-0.03 -0.35,-0.35 -0.35,-0.89 0,-0.91 0.69,-1.29 1.24,-1.29 0.62,0 1.28,0.43 1.28,1.29 0,0.93 -0.91,1.71 -2.22,1.71 -1.25,0 -2.84,-0.65 -3.81,-2.75 h -0.03 v 2.75 l -3.99,-0.28 v -1.09 c 1.85,0 2.06,-0.17 2.06,-1.39 v -6.16 c 0,-0.78 0,-1 -1.6,-1 h -0.46 v -1.09 c 1.05,0.08 2.17,0.09 3.22,0.09 1.3,0 2.52,-0.04 3.56,-0.09 v 1.09 h -0.67 c -1.92,0 -1.92,0.25 -1.92,1.03 z"
           id="path4939" /><path
           style="fill:#0000ff;stroke-width:0"
           inkscape:connector-curvature="0"
           d="m 524.07,434.23 -0.04,-0.02 -0.03,-0.03 -0.03,-0.02 -0.03,-0.03 -0.02,-0.02 -0.03,-0.03 -0.03,-0.03 -0.02,-0.03 -0.03,-0.03 -0.02,-0.03 -0.03,-0.03 -0.02,-0.03 -0.02,-0.03 -0.02,-0.04 -0.02,-0.03 -0.02,-0.03 -0.01,-0.04 -0.02,-0.04 -0.01,-0.03 -0.02,-0.04 -0.01,-0.04 -0.01,-0.04 -0.01,-0.03 -0.01,-0.04 -0.01,-0.04 -0.01,-0.04 -0.01,-0.04 v -0.05 -0.04 l -0.01,-0.04 v -0.04 -0.04 c 0,-0.82 0.63,-1.32 1.31,-1.32 0.61,0 1.33,0.39 1.33,1.35 0,2.11 -2.76,2.19 -4.51,2.19 -4.88,0 -6.97,-3.29 -6.97,-5.79 0,-3.07 2.9,-5.65 6.67,-5.65 4.31,0 5.15,3.04 5.15,3.26 0,0.36 -0.37,0.36 -0.51,0.36 -0.41,0 -0.44,-0.08 -0.55,-0.37 -0.86,-2.08 -2.67,-2.35 -3.76,-2.35 -2.15,0 -4.52,1.44 -4.52,4.79 0,1.09 0.24,2.46 1.16,3.51 1.18,1.34 2.65,1.34 3.43,1.34 0.74,0 1.44,0 2.32,-0.23 z"
           id="path4941" /></g>    </g>
    <g
       id="g5030"
       transform="matrix(0.28242954,0,0,0.28242954,79.911029,49.959632)"
       style="fill:#0000ff;stroke:#0000ff">
      <g
         word-spacing="normal"
         letter-spacing="normal"
         font-size-adjust="none"
         font-stretch="normal"
         font-weight="normal"
         font-variant="normal"
         font-style="normal"
         stroke-miterlimit="10.433"
         xml:space="preserve"
         transform="matrix(0.3,0,0,-0.3,-52.5,222.75)"
         id="content"
         style="font-style:normal;font-variant:normal;font-weight:normal;font-stretch:normal;letter-spacing:normal;word-spacing:normal;text-anchor:start;fill:#0000ff;fill-opacity:1;fill-rule:evenodd;stroke:#0000ff;stroke-linecap:butt;stroke-linejoin:miter;stroke-miterlimit:10.43299961;stroke-dasharray:none;stroke-dashoffset:0;stroke-opacity:1"><path
           id="path5021"
           d="m 472.75,418.45 5.83,6.48 c 0.66,0.71 0.96,1.05 5.1,1.05 v 2.34 c -1.75,-0.11 -4.35,-0.15 -4.6,-0.15 -1.25,0 -3.73,0.11 -5.12,0.15 v -2.34 c 0.68,0 1.29,-0.11 1.89,-0.45 -0.21,-0.3 -0.21,-0.39 -0.41,-0.6 l -4.17,-4.68 -4.89,5.73 h 2 v 2.34 c -1.3,-0.04 -4.44,-0.15 -6.03,-0.15 -1.6,0 -3.85,0.11 -5.49,0.15 v -2.34 h 3.53 l 7.79,-9.17 -6.54,-7.33 c -0.84,-0.94 -2.64,-0.94 -5.03,-0.94 v -2.34 c 1.75,0.09 4.35,0.16 4.58,0.16 1.25,0 4.14,-0.11 5.14,-0.16 v 2.34 c -0.89,0 -1.84,0.25 -1.84,0.55 0,0.05 0,0.09 0.34,0.5 l 4.85,5.42 5.46,-6.47 h -1.93 v -2.34 c 1.29,0.05 4.33,0.16 5.98,0.16 1.6,0 3.83,-0.11 5.47,-0.16 v 2.34 h -3.53 z"
           inkscape:connector-curvature="0"
           style="fill:#0000ff;stroke:#0000ff;stroke-width:0" /><path
           id="path5023"
           d="m 496.28,441.21 v -1.09 c 1.84,0 2.06,-0.17 2.06,-1.41 v -4.84 c -0.55,0.47 -1.89,1.34 -3.95,1.34 -3.75,0 -6.83,-2.51 -6.83,-5.65 0,-3.02 2.81,-5.64 6.51,-5.64 l 0.16,0.83 c -1.25,0 -2.48,0.5 -3.31,1.59 -0.8,1.02 -0.88,2.44 -0.88,3.22 0,0.67 0.05,2.31 1.13,3.45 0.87,0.91 2.17,1.38 3.39,1.38 0.72,0 2.48,-0.16 3.69,-1.85 v -5.62 c -1.21,-1.85 -3.05,-2.17 -4.02,-2.17 l -0.16,-0.83 c 2.05,0 3.47,0.9 4.18,1.5 v -1.5 l 4.28,0.28 v 1.09 c -1.85,0 -2.07,0.17 -2.07,1.39 v 14.8 z"
           inkscape:connector-curvature="0"
           style="fill:#0000ff;stroke:#0000ff;stroke-width:0" /><path
           id="path5025"
           d="m 517.35,429.81 h 0.05 0.05 0.05 0.04 0.04 0.04 l 0.04,0.01 h 0.04 0.03 l 0.03,0.01 h 0.04 l 0.03,0.01 0.02,0.01 0.03,0.01 0.03,0.01 0.02,0.01 0.02,0.02 0.02,0.01 0.02,0.02 0.02,0.02 0.01,0.03 0.02,0.02 v 0.02 l 0.01,0.01 0.01,0.01 v 0.02 l 0.01,0.02 v 0.01 l 0.01,0.02 v 0.02 l 0.01,0.02 v 0.02 0.02 0.02 l 0.01,0.02 v 0.02 0.02 0.03 0.02 0.03 0.02 0.03 c 0,1.67 -0.88,4.96 -5.54,4.96 -3.8,0 -6.45,-2.72 -6.45,-5.68 0,-3.17 3.03,-5.76 6.81,-5.76 3.97,0 5.18,2.76 5.18,3.25 0,0.42 -0.38,0.42 -0.51,0.42 -0.37,0 -0.44,-0.11 -0.58,-0.45 -0.7,-1.72 -2.54,-2.32 -3.94,-2.32 -2.01,0 -3.14,1.13 -3.51,1.55 -0.97,1.19 -0.97,2.77 -0.97,3.44 l 0.05,0.76 c 0.29,3.3 2.72,3.97 3.89,3.97 3.47,0 3.64,-3.25 3.65,-3.97 h -7.54 l -0.05,-0.76 z"
           inkscape:connector-curvature="0"
           style="fill:#0000ff;stroke:#0000ff;stroke-width:0" /><path
           id="path5027"
           d="m 530.86,434.67 v 0.04 0.04 0.03 0.04 0.03 0.04 l -0.01,0.03 v 0.03 0.03 0.03 l -0.01,0.03 v 0.03 l -0.01,0.03 v 0.02 l -0.01,0.03 -0.01,0.02 -0.01,0.02 -0.01,0.02 -0.02,0.02 -0.01,0.02 -0.02,0.02 -0.01,0.01 -0.02,0.01 -0.02,0.02 -0.02,0.01 h -0.02 l -0.01,0.01 h -0.01 l -0.01,0.01 h -0.02 -0.01 l -0.02,0.01 h -0.01 -0.02 -0.02 -0.01 -0.02 -0.02 l -0.02,0.01 c -0.12,0 -0.22,-0.02 -0.42,-0.18 -0.09,-0.09 -0.55,-0.5 -0.64,-0.5 -0.03,0 -0.08,0 -0.23,0.11 -0.57,0.32 -1.49,0.57 -2.74,0.57 -4.11,0 -4.95,-1.9 -4.95,-3.04 0,-2.34 2.89,-2.79 5.17,-3.14 1.45,-0.22 3.74,-0.57 3.74,-2.26 0,-0.88 -0.72,-2.17 -3.74,-2.17 -1.69,0 -3.33,0.62 -4.08,3.26 -0.12,0.45 -0.15,0.52 -0.58,0.52 -0.51,0 -0.51,-0.19 -0.51,-0.72 v -3.19 c 0,-0.42 0,-0.7 0.39,-0.7 0.2,0 0.22,0.03 0.7,0.5 l 0.64,0.62 c 1.25,-1.09 2.82,-1.12 3.44,-1.12 4.16,0 4.98,2.17 4.98,3.42 0,1.12 -0.62,1.94 -1.56,2.53 -1,0.63 -1.75,0.74 -3.84,1.05 -1.6,0.25 -3.52,0.56 -3.52,1.87 0,0.88 0.97,1.82 3.69,1.82 2.08,0 3.27,-0.82 3.42,-2.54 0.02,-0.37 0.05,-0.53 0.52,-0.53 0.53,0 0.53,0.17 0.53,0.71 z"
           inkscape:connector-curvature="0"
           style="fill:#0000ff;stroke:#0000ff;stroke-width:0" /></g>    </g>
    <g
       style="fill:#0000ff;stroke:#0000ff"
       transform="matrix(0.28242954,0,0,0.28242954,112.74463,49.959632)"
       id="g5104">
      <g
         style="font-style:normal;font-variant:normal;font-weight:normal;font-stretch:normal;letter-spacing:normal;word-spacing:normal;text-anchor:start;fill:#0000ff;fill-opacity:1;fill-rule:evenodd;stroke:#0000ff;stroke-linecap:butt;stroke-linejoin:miter;stroke-miterlimit:10.43299961;stroke-dasharray:none;stroke-dashoffset:0;stroke-opacity:1"
         id="g5102"
         transform="matrix(0.3,0,0,-0.3,-52.5,222.75)"
         xml:space="preserve"
         stroke-miterlimit="10.433"
         font-style="normal"
         font-variant="normal"
         font-weight="normal"
         font-stretch="normal"
         font-size-adjust="none"
         letter-spacing="normal"
         word-spacing="normal"><path
           style="fill:#0000ff;stroke:#0000ff;stroke-width:0"
           inkscape:connector-curvature="0"
           d="m 472.75,418.45 5.83,6.48 c 0.66,0.71 0.96,1.05 5.1,1.05 v 2.34 c -1.75,-0.11 -4.35,-0.15 -4.6,-0.15 -1.25,0 -3.73,0.11 -5.12,0.15 v -2.34 c 0.68,0 1.29,-0.11 1.89,-0.45 -0.21,-0.3 -0.21,-0.39 -0.41,-0.6 l -4.17,-4.68 -4.89,5.73 h 2 v 2.34 c -1.3,-0.04 -4.44,-0.15 -6.03,-0.15 -1.6,0 -3.85,0.11 -5.49,0.15 v -2.34 h 3.53 l 7.79,-9.17 -6.54,-7.33 c -0.84,-0.94 -2.64,-0.94 -5.03,-0.94 v -2.34 c 1.75,0.09 4.35,0.16 4.58,0.16 1.25,0 4.14,-0.11 5.14,-0.16 v 2.34 c -0.89,0 -1.84,0.25 -1.84,0.55 0,0.05 0,0.09 0.34,0.5 l 4.85,5.42 5.46,-6.47 h -1.93 v -2.34 c 1.29,0.05 4.33,0.16 5.98,0.16 1.6,0 3.83,-0.11 5.47,-0.16 v 2.34 h -3.53 z"
           id="path5092" /><path
           style="fill:#0000ff;stroke:#0000ff;stroke-width:0"
           inkscape:connector-curvature="0"
           d="m 501.07,429.51 v 0.29 l -0.03,0.29 -0.04,0.28 -0.06,0.29 -0.07,0.27 -0.09,0.28 -0.11,0.26 -0.12,0.27 -0.13,0.25 -0.15,0.25 -0.16,0.25 -0.17,0.24 -0.19,0.23 -0.2,0.22 -0.21,0.21 -0.22,0.21 -0.24,0.2 -0.24,0.18 -0.26,0.18 -0.27,0.17 -0.27,0.15 -0.29,0.15 -0.3,0.13 -0.3,0.12 -0.32,0.11 -0.32,0.09 -0.33,0.08 -0.33,0.07 -0.35,0.05 -0.35,0.04 -0.36,0.03 -0.36,0.01 v -0.82 c 4.36,0 4.36,-3.67 4.36,-4.78 0,-1.23 0,-4.94 -4.36,-4.94 v 0 c -4.36,0 -4.36,3.71 -4.36,4.94 0,1.11 0,4.78 4.36,4.78 v 0.82 c -3.91,0 -6.84,-2.74 -6.84,-5.85 0,-3 2.95,-5.59 6.84,-5.59 3.91,0 6.84,2.59 6.84,5.59 z"
           id="path5094" /><path
           style="fill:#0000ff;stroke:#0000ff;stroke-width:0"
           inkscape:connector-curvature="0"
           d="m 508.76,441.48 -4.19,-0.27 v -1.09 c 1.84,0 2.06,-0.17 2.06,-1.41 V 424.2 h 1.05 c 0.2,0.33 0.41,0.67 0.58,1 0.08,0.14 0.17,0.31 0.28,0.47 1.06,-1.14 2.58,-1.75 4.16,-1.75 l -0.16,0.83 c -1.69,0 -2.99,0.95 -3.69,2.09 v 5.67 c 0.86,1.24 2.5,1.88 3.99,1.88 2.95,0 4.21,-2.18 4.21,-4.82 0,-1.43 -0.32,-2.7 -1.29,-3.62 -0.8,-0.75 -2.02,-1.2 -3.22,-1.2 l 0.16,-0.83 c 3.78,0 6.84,2.54 6.84,5.65 0,3 -2.77,5.64 -6.52,5.64 -1.34,0 -2.92,-0.35 -4.26,-1.4 z"
           id="path5096" /><path
           style="fill:#0000ff;stroke:#0000ff;stroke-width:0"
           inkscape:connector-curvature="0"
           d="m 530.41,439.54 -0.01,0.08 v 0.08 l -0.01,0.08 -0.01,0.07 -0.02,0.07 -0.02,0.08 -0.03,0.07 -0.02,0.07 -0.03,0.06 -0.04,0.07 -0.03,0.06 -0.04,0.06 -0.04,0.06 -0.05,0.06 -0.05,0.05 -0.05,0.06 -0.05,0.05 -0.06,0.04 -0.05,0.05 -0.06,0.04 -0.07,0.04 -0.06,0.04 -0.07,0.03 -0.06,0.03 -0.07,0.03 -0.07,0.02 -0.08,0.02 -0.07,0.02 -0.08,0.01 -0.08,0.01 -0.08,0.01 h -0.07 c -0.82,0 -1.52,-0.67 -1.52,-1.52 0,-0.84 0.67,-1.51 1.52,-1.51 0.82,0 1.53,0.67 1.53,1.51 z"
           id="path5098" /><path
           style="fill:#0000ff;stroke:#0000ff;stroke-width:0"
           inkscape:connector-curvature="0"
           d="m 526,434.93 v -1.09 c 2.03,0 2.28,-0.17 2.28,-1.42 v -9.31 c 0,-1.52 -0.56,-3.19 -2.06,-3.19 -0.33,0 -0.91,0.08 -1.34,0.22 0.12,0.07 0.59,0.42 0.59,1.12 0,0.8 -0.58,1.31 -1.31,1.31 -0.74,0 -1.33,-0.51 -1.33,-1.31 0,-1.51 1.67,-2.17 3.4,-2.17 2.1,0 4.18,1.47 4.18,4.03 v 12.09 z"
           id="path5100" /></g>    </g>
    <g
       transform="matrix(0.531441,0,0,0.531441,-4.7689729,26.896861)"
       style="fill:#0000ff;stroke:#0000ff"
       id="g5202">
      <g
         style="font-style:normal;font-variant:normal;font-weight:normal;font-stretch:normal;letter-spacing:normal;word-spacing:normal;text-anchor:start;fill:#0000ff;fill-opacity:1;fill-rule:evenodd;stroke:#0000ff;stroke-linecap:butt;stroke-linejoin:miter;stroke-miterlimit:10.43299961;stroke-dasharray:none;stroke-dashoffset:0;stroke-opacity:1"
         word-spacing="normal"
         letter-spacing="normal"
         font-size-adjust="none"
         font-stretch="normal"
         font-weight="normal"
         font-variant="normal"
         font-style="normal"
         stroke-miterlimit="10.433"
         xml:space="preserve"
         transform="matrix(0.3,0,0,-0.3,-52.5,222.75)"
         id="g5200"><path
           inkscape:connector-curvature="0"
           style="fill:#0000ff;stroke:#0000ff;stroke-width:0"
           id="path5192"
           d="m 470.36,417.46 0.15,0.01 h 0.16 0.15 0.07 l 0.08,0.01 h 0.07 l 0.07,0.01 0.07,0.01 0.07,0.01 0.07,0.01 0.07,0.02 0.06,0.01 0.06,0.02 0.06,0.02 0.06,0.03 0.06,0.02 0.05,0.03 0.05,0.03 0.04,0.04 0.04,0.04 0.04,0.04 0.04,0.05 0.01,0.02 0.02,0.03 0.01,0.02 0.01,0.03 0.02,0.03 0.01,0.03 v 0.03 l 0.01,0.03 0.01,0.04 0.01,0.03 v 0.04 0.03 l 0.01,0.04 v 0.04 c 0,0.69 -0.61,0.69 -1.46,0.69 h -8.06 c 1.19,4.23 3.99,7.12 8.52,7.12 h 1.54 c 0.85,0 1.64,0 1.64,0.86 0,0.69 -0.65,0.69 -1.5,0.69 h -1.73 c -6.48,0 -13.16,-4.99 -13.16,-12.6 0,-5.48 3.74,-9.42 9.02,-9.42 3.23,0 6.48,1.99 6.48,2.55 0,0.14 -0.06,0.69 -0.5,0.69 -0.11,0 -0.2,0 -0.65,-0.3 -1.55,-1 -3.39,-1.84 -5.24,-1.84 -2.89,0 -5.37,2.09 -5.37,6.48 0,1.73 0.4,3.63 0.54,4.23 z" /><path
           inkscape:connector-curvature="0"
           style="fill:#0000ff;stroke:#0000ff;stroke-width:0"
           id="path5194"
           d="m 495.79,406.9 0.06,0.13 0.06,0.12 0.06,0.11 0.06,0.1 0.07,0.1 0.07,0.09 0.07,0.09 0.07,0.08 0.08,0.07 0.08,0.07 0.07,0.06 0.08,0.06 0.08,0.05 0.08,0.05 0.08,0.05 0.08,0.04 0.09,0.03 0.08,0.04 0.08,0.02 0.08,0.03 0.08,0.02 0.08,0.02 0.08,0.02 0.08,0.01 0.08,0.01 0.08,0.01 0.08,0.01 h 0.07 l 0.07,0.01 h 0.07 0.07 0.07 v 1.1 c -0.7,-0.08 -1.33,-0.1 -2.14,-0.1 -0.83,0 -1.84,0.02 -2.67,0.1 v -1.1 c 1.06,-0.03 1.42,-0.58 1.42,-1.01 0,-0.11 -0.05,-0.33 -0.11,-0.43 l -2.73,-6.2 -2.94,6.72 c -0.16,0.3 -0.16,0.34 -0.16,0.38 0,0.54 0.99,0.54 1.47,0.54 v 1.1 c -0.94,-0.08 -1.98,-0.1 -2.94,-0.1 -0.92,0 -1.64,0.02 -2.51,0.1 v -1.1 c 0.5,0 1.17,0 1.5,-0.12 0.29,-0.13 0.64,-0.63 0.64,-0.88 0,-0.01 -0.1,-0.25 -0.13,-0.29 l -2.61,-5.99 -2.81,6.36 c -0.05,0.09 -0.12,0.25 -0.12,0.38 0,0.54 0.96,0.54 1.46,0.54 v 1.1 c -1.01,-0.08 -2.06,-0.1 -3.09,-0.1 -0.84,0 -1.84,0.02 -2.69,0.1 v -1.1 c 1.27,0 1.72,0 2.05,-0.72 l 3.77,-8.59 c 0.25,-0.55 0.48,-0.61 0.84,-0.61 0.42,0 0.62,0.11 0.81,0.56 l 3.1,7.05 3.11,-7.05 c 0.2,-0.45 0.4,-0.56 0.82,-0.56 0.35,0 0.6,0.06 0.85,0.61 z" /><path
           inkscape:connector-curvature="0"
           style="fill:#0000ff;stroke:#0000ff;stroke-width:0"
           id="path5196"
           d="m 513.34,406.9 0.08,0.15 0.05,0.08 0.04,0.07 0.05,0.07 0.04,0.08 0.06,0.06 0.05,0.07 0.05,0.07 0.06,0.06 0.06,0.06 0.06,0.06 0.07,0.06 0.07,0.06 0.07,0.05 0.07,0.05 0.08,0.05 0.08,0.05 0.09,0.04 0.08,0.04 0.1,0.04 0.09,0.04 0.1,0.03 0.11,0.03 0.11,0.03 0.11,0.02 0.12,0.02 0.12,0.02 0.13,0.02 0.13,0.01 0.14,0.01 h 0.14 v 1.1 c -0.64,-0.05 -1.3,-0.1 -2.17,-0.1 -0.02,0 -1.64,0.02 -2.53,0.1 v -1.1 c 0.67,-0.03 1.09,-0.33 1.09,-0.89 0,-0.25 -0.11,-0.48 -0.12,-0.5 l -3.18,-6.19 -3.4,6.66 c -0.05,0.09 -0.13,0.25 -0.13,0.41 0,0.51 0.85,0.51 1.35,0.51 v 1.1 c -1.15,-0.08 -2.94,-0.1 -3.11,-0.1 -1,0 -1.75,0 -2.8,0.1 v -1.1 c 1.5,0 1.84,0 2.22,-0.75 l 4.4,-8.59 c 0.19,-0.35 0.3,-0.58 0.88,-0.58 0.58,0 0.7,0.25 0.87,0.58 z" /><path
           inkscape:connector-curvature="0"
           style="fill:#0000ff;stroke:#0000ff;stroke-width:0"
           id="path5198"
           d="m 528.77,408.45 0.11,0.06 0.11,0.07 0.12,0.05 0.11,0.06 0.11,0.05 0.1,0.05 0.11,0.04 0.11,0.04 0.1,0.04 0.1,0.03 0.11,0.03 0.1,0.03 0.09,0.03 0.1,0.03 0.09,0.02 0.09,0.02 0.09,0.02 0.09,0.01 0.08,0.02 0.08,0.01 0.08,0.01 0.08,0.01 0.07,0.01 0.07,0.01 h 0.06 l 0.07,0.01 h 0.05 l 0.06,0.01 h 0.05 0.05 l 0.04,0.01 h 0.04 c -0.08,-0.11 -0.21,-0.25 -0.21,-0.61 0,-0.5 0.33,-0.92 0.93,-0.92 0.61,0 0.92,0.42 0.92,0.92 0,0.66 -0.52,1.42 -1.72,1.42 -0.59,0 -1.91,-0.12 -3.23,-1.14 -0.58,0.35 -1.69,0.88 -3.24,0.88 l -0.03,-0.83 c 2.2,0 2.8,-1.44 2.8,-2.84 0,-1.36 -0.6,-2.83 -2.77,-2.83 v 0 c -2.19,0 -2.79,1.43 -2.79,2.83 0,1.37 0.6,2.84 2.76,2.84 l 0.03,0.83 c -2.94,0 -4.98,-1.75 -4.98,-3.67 0,-1.27 0.92,-2.19 1.29,-2.49 -0.59,-0.72 -0.75,-1.47 -0.75,-2.01 0,-1.33 0.85,-2.15 1.08,-2.33 -1.25,-0.32 -2.7,-1.11 -2.7,-2.44 0,-1.97 3.3,-3.2 6.9,-3.2 v 0.81 c -2.85,0 -5.18,1.09 -5.18,2.42 0,0.77 0.87,1.84 2.75,1.84 h 1.61 c 2.5,0 6.01,0 6.01,-1.87 0,-1.22 -2.22,-2.39 -5.19,-2.39 v -0.81 c 3.35,0 6.91,1.09 6.91,3.25 0,1.12 -0.66,2.32 -1.87,2.92 -1.67,0.8 -3.27,0.8 -5.92,0.8 -0.63,0 -1.72,0 -1.85,0.03 -1.2,0.18 -1.47,1.17 -1.47,1.64 0,0.5 0.25,0.89 0.32,0.89 0.06,0 0.1,-0.02 0.18,-0.05 0.99,-0.51 1.95,-0.67 2.83,-0.67 2.94,0 4.99,1.75 4.99,3.66 0,1.2 -0.82,2.07 -1.13,2.34 z" /></g>    </g>
    <g
       style="fill:#0000ff;stroke:#0000ff"
       transform="matrix(0.531441,0,0,0.531441,-4.713831,42.942521)"
       id="g5322">
      <g
         style="font-style:normal;font-variant:normal;font-weight:normal;font-stretch:normal;letter-spacing:normal;word-spacing:normal;text-anchor:start;fill:#0000ff;fill-opacity:1;fill-rule:evenodd;stroke:#0000ff;stroke-linecap:butt;stroke-linejoin:miter;stroke-miterlimit:10.43299961;stroke-dasharray:none;stroke-dashoffset:0;stroke-opacity:1"
         id="g5320"
         transform="matrix(0.3,0,0,-0.3,-52.5,222.75)"
         xml:space="preserve"
         stroke-miterlimit="10.433"
         font-style="normal"
         font-variant="normal"
         font-weight="normal"
         font-stretch="normal"
         font-size-adjust="none"
         letter-spacing="normal"
         word-spacing="normal"><path
           style="fill:#0000ff;stroke:#0000ff;stroke-width:0"
           inkscape:connector-curvature="0"
           d="m 470.36,417.46 0.15,0.01 h 0.16 0.15 0.07 l 0.08,0.01 h 0.07 l 0.07,0.01 0.07,0.01 0.07,0.01 0.07,0.01 0.07,0.02 0.06,0.01 0.06,0.02 0.06,0.02 0.06,0.03 0.06,0.02 0.05,0.03 0.05,0.03 0.04,0.04 0.04,0.04 0.04,0.04 0.04,0.05 0.01,0.02 0.02,0.03 0.01,0.02 0.01,0.03 0.02,0.03 0.01,0.03 v 0.03 l 0.01,0.03 0.01,0.04 0.01,0.03 v 0.04 0.03 l 0.01,0.04 v 0.04 c 0,0.69 -0.61,0.69 -1.46,0.69 h -8.06 c 1.19,4.23 3.99,7.12 8.52,7.12 h 1.54 c 0.85,0 1.64,0 1.64,0.86 0,0.69 -0.65,0.69 -1.5,0.69 h -1.73 c -6.48,0 -13.16,-4.99 -13.16,-12.6 0,-5.48 3.74,-9.42 9.02,-9.42 3.23,0 6.48,1.99 6.48,2.55 0,0.14 -0.06,0.69 -0.5,0.69 -0.11,0 -0.2,0 -0.65,-0.3 -1.55,-1 -3.39,-1.84 -5.24,-1.84 -2.89,0 -5.37,2.09 -5.37,6.48 0,1.73 0.4,3.63 0.54,4.23 z"
           id="path5314" /><path
           style="fill:#0000ff;stroke:#0000ff;stroke-width:0"
           inkscape:connector-curvature="0"
           d="m 481.76,416.04 -4.19,-0.26 v -1.1 c 1.84,0 2.06,-0.17 2.06,-1.4 v -14.52 h 1.05 c 0.2,0.33 0.41,0.67 0.58,1 0.08,0.14 0.17,0.31 0.28,0.47 1.06,-1.14 2.58,-1.75 4.16,-1.75 l -0.16,0.83 c -1.69,0 -2.99,0.95 -3.69,2.09 v 5.67 c 0.86,1.24 2.5,1.88 3.99,1.88 2.95,0 4.21,-2.17 4.21,-4.81 0,-1.44 -0.32,-2.71 -1.29,-3.63 -0.8,-0.75 -2.02,-1.2 -3.22,-1.2 l 0.16,-0.83 c 3.78,0 6.84,2.55 6.84,5.66 0,3 -2.77,5.64 -6.52,5.64 -1.34,0 -2.92,-0.36 -4.26,-1.41 z"
           id="path5316" /><path
           style="fill:#0000ff;stroke:#0000ff;stroke-width:0"
           inkscape:connector-curvature="0"
           d="m 505.85,408.45 0.11,0.06 0.12,0.07 0.11,0.05 0.11,0.06 0.11,0.05 0.11,0.05 0.1,0.04 0.11,0.04 0.1,0.04 0.11,0.03 0.1,0.03 0.1,0.03 0.1,0.03 0.09,0.03 0.09,0.02 0.1,0.02 0.08,0.02 0.09,0.01 0.08,0.02 0.09,0.01 0.07,0.01 0.08,0.01 0.07,0.01 0.07,0.01 h 0.07 l 0.06,0.01 h 0.06 l 0.05,0.01 h 0.05 0.05 l 0.04,0.01 h 0.04 c -0.08,-0.11 -0.2,-0.25 -0.2,-0.61 0,-0.5 0.33,-0.92 0.92,-0.92 0.61,0 0.92,0.42 0.92,0.92 0,0.66 -0.51,1.42 -1.72,1.42 -0.59,0 -1.9,-0.12 -3.23,-1.14 -0.58,0.35 -1.69,0.88 -3.24,0.88 l -0.03,-0.83 c 2.21,0 2.8,-1.44 2.8,-2.84 0,-1.36 -0.59,-2.83 -2.77,-2.83 v 0 c -2.18,0 -2.79,1.43 -2.79,2.83 0,1.37 0.61,2.84 2.76,2.84 l 0.03,0.83 c -2.93,0 -4.98,-1.75 -4.98,-3.67 0,-1.27 0.92,-2.19 1.3,-2.49 -0.6,-0.72 -0.75,-1.47 -0.75,-2.01 0,-1.33 0.84,-2.15 1.07,-2.33 -1.25,-0.32 -2.7,-1.11 -2.7,-2.44 0,-1.97 3.3,-3.2 6.91,-3.2 v 0.81 c -2.86,0 -5.19,1.09 -5.19,2.42 0,0.77 0.87,1.84 2.75,1.84 h 1.61 c 2.5,0 6.01,0 6.01,-1.87 0,-1.22 -2.21,-2.39 -5.18,-2.39 v -0.81 c 3.34,0 6.9,1.09 6.9,3.25 0,1.12 -0.65,2.32 -1.87,2.92 -1.67,0.8 -3.27,0.8 -5.92,0.8 -0.63,0 -1.72,0 -1.85,0.03 -1.2,0.18 -1.47,1.17 -1.47,1.64 0,0.5 0.25,0.89 0.32,0.89 0.06,0 0.11,-0.02 0.18,-0.05 0.99,-0.51 1.96,-0.67 2.83,-0.67 2.94,0 4.99,1.75 4.99,3.66 0,1.2 -0.82,2.07 -1.13,2.34 z"
           id="path5318" /></g>    </g>
    <text
       id="text5394"
       y="110.57595"
       x="27.545248"
       style="font-style:normal;font-variant:normal;font-weight:normal;font-stretch:normal;font-size:6.24935198px;line-height:1.25;font-family:cmr10;-inkscape-font-specification:cmr10;letter-spacing:0px;word-spacing:0px;fill:#0000ff;fill-opacity:1;stroke:none;stroke-width:0.15623379"
       xml:space="preserve"><tspan
         style="font-style:normal;font-variant:normal;font-weight:normal;font-stretch:normal;font-family:cmr10;-inkscape-font-specification:cmr10;fill:#0000ff;stroke-width:0.15623379"
         y="110.57595"
         x="27.545248"
         id="tspan5392"
         sodipodi:role="line">PML</tspan></text>
  </g>
  <g
     style="display:none"
     inkscape:label="DeltaEps"
     id="layer2"
     inkscape:groupmode="layer">
    <rect
       y="37.336559"
       x="77.024063"
       height="5.2916665"
       width="5.2916665"
       id="rect6153"
       style="opacity:1;fill:#ff0000;fill-opacity:0.45203253;stroke:none;stroke-width:0.5;stroke-linejoin:bevel;stroke-miterlimit:4;stroke-dasharray:none;stroke-dashoffset:0;stroke-opacity:1" />
    <g
       id="g6618"
       transform="translate(51.261234,-35.43498)"
       style="fill:#ff0000">
      <g
         word-spacing="normal"
         letter-spacing="normal"
         font-size-adjust="none"
         font-stretch="normal"
         font-weight="normal"
         font-variant="normal"
         font-style="normal"
         stroke-miterlimit="10.433"
         xml:space="preserve"
         transform="matrix(0.11423539,0,0,-0.11423539,-19.991194,119.50484)"
         id="g6616"
         style="font-style:normal;font-variant:normal;font-weight:normal;font-stretch:normal;letter-spacing:normal;word-spacing:normal;text-anchor:start;fill:#ff0000;fill-opacity:1;fill-rule:evenodd;stroke:#000000;stroke-linecap:butt;stroke-linejoin:miter;stroke-miterlimit:10.43299961;stroke-dasharray:none;stroke-dashoffset:0;stroke-opacity:1"><path
           id="path6612"
           d="m 477.54,440.98 -0.04,0.06 -0.03,0.06 -0.03,0.05 -0.02,0.05 -0.03,0.05 -0.03,0.05 -0.03,0.05 -0.02,0.04 -0.03,0.04 -0.03,0.04 -0.02,0.04 -0.03,0.03 -0.03,0.04 -0.03,0.03 -0.03,0.03 -0.03,0.03 -0.03,0.02 -0.04,0.03 -0.04,0.02 -0.03,0.02 -0.05,0.02 -0.04,0.01 -0.05,0.02 -0.04,0.01 -0.06,0.01 -0.05,0.01 -0.06,0.01 -0.06,0.01 h -0.07 l -0.07,0.01 h -0.07 -0.04 -0.04 c -0.85,0 -0.94,-0.25 -1.28,-0.89 l -0.32,-4.09 13.41,-26.91 h -26.86 l 13.45,26.91 0.32,4.09 -16.85,-33.78 c -0.25,-0.45 -0.25,-0.55 -0.25,-0.59 0,-0.41 0.3,-0.41 1.1,-0.41 h 34.58 c 0.79,0 1.09,0 1.09,0.41 0,0.04 0,0.14 -0.25,0.59 z"
           inkscape:connector-curvature="0"
           style="fill:#ff0000;stroke-width:0" /><path
           id="path6614"
           d="m 511.88,417.46 0.15,0.01 h 0.15 0.16 0.07 l 0.08,0.01 h 0.07 l 0.07,0.01 0.07,0.01 0.07,0.01 0.07,0.01 0.07,0.02 0.06,0.01 0.06,0.02 0.06,0.02 0.06,0.03 0.06,0.02 0.05,0.03 0.05,0.03 0.04,0.04 0.04,0.04 0.04,0.04 0.04,0.05 0.01,0.02 0.02,0.03 0.01,0.02 0.01,0.03 0.02,0.03 0.01,0.03 v 0.03 l 0.01,0.03 0.01,0.04 0.01,0.03 v 0.04 0.03 l 0.01,0.04 v 0.04 c 0,0.69 -0.61,0.69 -1.46,0.69 h -8.06 c 1.19,4.23 3.98,7.12 8.52,7.12 h 1.54 c 0.85,0 1.64,0 1.64,0.86 0,0.69 -0.65,0.69 -1.5,0.69 h -1.73 c -6.49,0 -13.16,-4.99 -13.16,-12.6 0,-5.48 3.74,-9.42 9.02,-9.42 3.23,0 6.48,1.99 6.48,2.55 0,0.14 -0.06,0.69 -0.5,0.69 -0.11,0 -0.2,0 -0.65,-0.3 -1.55,-1 -3.39,-1.84 -5.24,-1.84 -2.89,0 -5.37,2.09 -5.37,6.48 0,1.73 0.4,3.63 0.54,4.23 z"
           inkscape:connector-curvature="0"
           style="fill:#ff0000;stroke-width:0" /></g>    </g>
    <g
       transform="translate(34.181863,-28.662346)"
       style="fill:#ff0000;stroke:#ff0000"
       id="g6754">
      <g
         style="font-style:normal;font-variant:normal;font-weight:normal;font-stretch:normal;letter-spacing:normal;word-spacing:normal;text-anchor:start;fill:#ff0000;fill-opacity:1;fill-rule:evenodd;stroke:#ff0000;stroke-linecap:butt;stroke-linejoin:miter;stroke-miterlimit:10.43299961;stroke-dasharray:none;stroke-dashoffset:0;stroke-opacity:1"
         id="g6752"
         transform="matrix(0.11423539,0,0,-0.11423539,-19.991194,119.50484)"
         xml:space="preserve"
         stroke-miterlimit="10.433"
         font-style="normal"
         font-variant="normal"
         font-weight="normal"
         font-stretch="normal"
         font-size-adjust="none"
         letter-spacing="normal"
         word-spacing="normal"><path
           inkscape:connector-curvature="0"
           style="fill:#ff0000;stroke:#ff0000;stroke-width:0"
           d="m 468.97,410.48 0.07,0.57 0.07,0.56 0.05,0.55 0.06,0.54 0.05,0.52 0.05,0.52 0.05,0.5 0.04,0.49 0.03,0.48 0.04,0.47 0.03,0.45 0.03,0.44 0.03,0.42 0.02,0.41 0.02,0.4 0.02,0.38 0.02,0.36 0.01,0.35 0.01,0.33 0.01,0.31 0.01,0.3 0.01,0.28 0.01,0.26 v 0.24 l 0.01,0.22 v 0.21 0.18 0.17 0.14 0.13 0.1 0.08 c 0,3.55 0,18.39 -9.08,18.39 -1.68,0 -3.43,-1.39 -3.43,-2.09 0,-0.35 0.25,-0.35 0.95,-0.41 7.28,-0.64 7.88,-12.05 7.88,-17.69 0,-5.03 -0.66,-11 -1.25,-14.34 -0.1,-0.59 -0.1,-0.7 -0.1,-0.89 0,-0.25 0,-0.85 0.35,-0.85 0.54,0 12.6,9.21 18.93,18.83 2.53,3.89 4.42,8.32 4.42,11.66 0,4.23 -2.78,5.78 -4.82,5.78 -1.44,0 -2.14,-3.14 -2.14,-3.8 0,-0.73 0.25,-0.73 0.84,-0.79 3.34,-0.39 3.94,-3.03 3.94,-4.24 0,-4.03 -8.67,-14.25 -17.24,-20.92 z"
           id="path6744" /><path
           inkscape:connector-curvature="0"
           style="fill:#ff0000;stroke:#ff0000;stroke-width:0"
           d="m 500.59,441.21 v -1.09 c 1.85,0 2.07,-0.17 2.07,-1.41 v -4.84 c -0.55,0.47 -1.89,1.34 -3.96,1.34 -3.75,0 -6.82,-2.51 -6.82,-5.65 0,-3.02 2.81,-5.64 6.51,-5.64 l 0.16,0.83 c -1.25,0 -2.49,0.5 -3.32,1.59 -0.79,1.02 -0.87,2.44 -0.87,3.22 0,0.67 0.05,2.31 1.12,3.45 0.88,0.91 2.18,1.38 3.4,1.38 0.71,0 2.48,-0.16 3.68,-1.85 v -5.62 c -1.2,-1.85 -3.04,-2.17 -4.01,-2.17 l -0.16,-0.83 c 2.05,0 3.47,0.9 4.17,1.5 v -1.5 l 4.28,0.28 v 1.09 c -1.84,0 -2.06,0.17 -2.06,1.39 v 14.8 z"
           id="path6746" /><path
           inkscape:connector-curvature="0"
           style="fill:#ff0000;stroke:#ff0000;stroke-width:0"
           d="m 521.67,429.81 h 0.05 0.05 0.04 0.05 0.04 0.04 l 0.04,0.01 h 0.03 0.04 l 0.03,0.01 h 0.03 l 0.03,0.01 0.03,0.01 0.03,0.01 0.02,0.01 0.03,0.01 0.02,0.02 0.02,0.01 0.02,0.02 0.01,0.02 0.02,0.03 0.01,0.02 0.01,0.02 0.01,0.01 v 0.01 l 0.01,0.02 v 0.02 l 0.01,0.01 v 0.02 l 0.01,0.02 v 0.02 l 0.01,0.02 v 0.02 0.02 0.02 l 0.01,0.02 v 0.02 0.03 0.02 0.03 0.02 0.03 c 0,1.67 -0.89,4.96 -5.54,4.96 -3.8,0 -6.46,-2.72 -6.46,-5.68 0,-3.17 3.03,-5.76 6.81,-5.76 3.97,0 5.19,2.76 5.19,3.25 0,0.42 -0.39,0.42 -0.51,0.42 -0.38,0 -0.44,-0.11 -0.58,-0.45 -0.71,-1.72 -2.55,-2.32 -3.94,-2.32 -2.01,0 -3.14,1.13 -3.51,1.55 -0.97,1.19 -0.97,2.77 -0.97,3.44 l 0.04,0.76 c 0.3,3.3 2.72,3.97 3.89,3.97 3.47,0 3.64,-3.25 3.66,-3.97 h -7.55 l -0.04,-0.76 z"
           id="path6748" /><path
           inkscape:connector-curvature="0"
           style="fill:#ff0000;stroke:#ff0000;stroke-width:0"
           d="m 535.18,434.67 v 0.04 0.04 0.03 0.04 l -0.01,0.03 v 0.04 0.03 0.03 0.03 l -0.01,0.03 v 0.03 l -0.01,0.03 v 0.03 l -0.01,0.02 -0.01,0.03 v 0.02 l -0.01,0.02 -0.02,0.02 -0.01,0.02 -0.01,0.02 -0.02,0.02 -0.02,0.01 -0.01,0.01 -0.03,0.02 -0.02,0.01 h -0.01 l -0.01,0.01 h -0.01 l -0.02,0.01 h -0.01 -0.02 l -0.01,0.01 h -0.02 -0.01 -0.02 -0.02 -0.01 -0.02 l -0.02,0.01 c -0.12,0 -0.22,-0.02 -0.42,-0.18 -0.1,-0.09 -0.55,-0.5 -0.64,-0.5 -0.03,0 -0.08,0 -0.24,0.11 -0.56,0.32 -1.48,0.57 -2.73,0.57 -4.11,0 -4.96,-1.9 -4.96,-3.04 0,-2.34 2.9,-2.79 5.18,-3.14 1.45,-0.22 3.73,-0.57 3.73,-2.26 0,-0.88 -0.72,-2.17 -3.73,-2.17 -1.69,0 -3.33,0.62 -4.08,3.26 -0.13,0.45 -0.16,0.52 -0.58,0.52 -0.52,0 -0.52,-0.19 -0.52,-0.72 v -3.19 c 0,-0.42 0,-0.7 0.4,-0.7 0.2,0 0.22,0.03 0.7,0.5 l 0.64,0.62 c 1.25,-1.09 2.81,-1.12 3.44,-1.12 4.15,0 4.98,2.17 4.98,3.42 0,1.12 -0.62,1.94 -1.56,2.53 -1,0.63 -1.75,0.74 -3.85,1.05 -1.59,0.25 -3.51,0.56 -3.51,1.87 0,0.88 0.97,1.82 3.69,1.82 2.07,0 3.26,-0.82 3.42,-2.54 0.02,-0.37 0.05,-0.53 0.52,-0.53 0.53,0 0.53,0.17 0.53,0.71 z"
           id="path6750" /></g>    </g>
  </g>
  <g
     style="display:inline"
     inkscape:label="Delta J"
     id="layer3"
     inkscape:groupmode="layer">
    <path
       sodipodi:nodetypes="cc"
       inkscape:connector-curvature="0"
       id="path5711"
       d="M 79.669892,38.659478 V 32.044894"
       style="fill:#ff0000;stroke:#ff0000;stroke-width:0.5;stroke-linecap:butt;stroke-linejoin:miter;stroke-miterlimit:4;stroke-dasharray:none;stroke-opacity:1;marker-end:url(#Arrow2Mend)" />
    <g
       id="g7466"
       transform="matrix(0.9,0,0,0.9,52.586473,-31.001952)"
       style="fill:#ff0000">
      <g
         word-spacing="normal"
         letter-spacing="normal"
         font-size-adjust="none"
         font-stretch="normal"
         font-weight="normal"
         font-variant="normal"
         font-style="normal"
         stroke-miterlimit="10.433"
         xml:space="preserve"
         transform="matrix(0.11423539,0,0,-0.11423539,-19.991194,119.50484)"
         id="g7464"
         style="font-style:normal;font-variant:normal;font-weight:normal;font-stretch:normal;letter-spacing:normal;word-spacing:normal;text-anchor:start;fill:#ff0000;fill-opacity:1;fill-rule:evenodd;stroke:#000000;stroke-linecap:butt;stroke-linejoin:miter;stroke-miterlimit:10.43299961;stroke-dasharray:none;stroke-dashoffset:0;stroke-opacity:1"><path
           id="path7422"
           d="m 515.47,456.04 -0.15,-0.07 -0.17,-0.09 -0.21,-0.11 -0.24,-0.12 -0.27,-0.13 -0.3,-0.14 -0.33,-0.15 -0.35,-0.16 -0.37,-0.17 -0.4,-0.18 -0.42,-0.18 -0.44,-0.19 -0.47,-0.19 -0.48,-0.19 -0.49,-0.19 -0.52,-0.19 -0.52,-0.18 -0.54,-0.19 -0.56,-0.18 -0.56,-0.17 -0.57,-0.17 -0.59,-0.16 -0.58,-0.15 -0.6,-0.14 -0.6,-0.13 -0.6,-0.11 -0.6,-0.1 -0.61,-0.09 -0.6,-0.06 -0.61,-0.05 -0.6,-0.04 -0.59,-0.01 c -3.64,0 -5.83,0.89 -9.27,2.39 -2.39,1 -4.83,1.99 -8.26,1.99 -5.85,0 -11.61,-2.78 -16.8,-5.28 l 0.5,-0.99 c 1.34,0.69 8.62,4.38 14.94,4.38 3.64,0 5.84,-0.89 9.28,-2.39 2.39,-1 4.83,-1.99 8.26,-1.99 5.83,0 11.61,2.78 16.79,5.28 z"
           inkscape:connector-curvature="0"
           style="fill:#ff0000;stroke-width:0" /><path
           id="path7424"
           d="m 477.54,440.74 -0.04,0.06 -0.03,0.06 -0.03,0.05 -0.02,0.05 -0.03,0.05 -0.03,0.05 -0.03,0.05 -0.02,0.04 -0.03,0.04 -0.03,0.04 -0.02,0.04 -0.03,0.04 -0.03,0.03 -0.03,0.03 -0.03,0.03 -0.03,0.03 -0.03,0.02 -0.04,0.03 -0.04,0.02 -0.03,0.02 -0.05,0.02 -0.04,0.02 -0.05,0.01 -0.04,0.01 -0.06,0.02 -0.05,0.01 h -0.06 l -0.06,0.01 -0.07,0.01 h -0.07 -0.07 -0.04 -0.04 c -0.85,0 -0.94,-0.25 -1.28,-0.89 l -0.32,-4.09 13.41,-26.91 h -26.86 l 13.45,26.91 0.32,4.09 -16.85,-33.78 c -0.25,-0.45 -0.25,-0.55 -0.25,-0.59 0,-0.41 0.3,-0.41 1.1,-0.41 h 34.58 c 0.79,0 1.09,0 1.09,0.41 0,0.04 0,0.14 -0.25,0.59 z"
           inkscape:connector-curvature="0"
           style="fill:#ff0000;stroke-width:0" /><path
           id="path7426"
           d="m 519.26,437.79 h 4.03 v 2.34 c -1.74,-0.14 -5.97,-0.14 -7.92,-0.14 -2.64,0 -7.52,0 -9.91,0.14 v -2.34 h 7.02 v -24.41 c 0,-0.93 0,-6.17 -4.93,-6.17 -0.84,0 -2.5,0.14 -3.98,0.8 v 0.04 c 0,0 2.23,0.96 2.23,3.58 0,2.71 -2.14,3.85 -3.78,3.85 -1.84,0 -3.84,-1.25 -3.84,-3.85 0,-3.83 3.94,-6.22 9.62,-6.22 6.68,0 11.46,2.85 11.46,8.02 z"
           inkscape:connector-curvature="0"
           style="fill:#ff0000;stroke-width:0" /><path
           id="path7428"
           d="m 574.71,422.26 h 0.14 0.14 0.15 l 0.07,0.01 h 0.07 l 0.08,0.01 0.07,0.01 0.07,0.01 0.07,0.01 0.07,0.01 0.06,0.02 0.07,0.02 0.06,0.02 0.06,0.03 0.06,0.02 0.05,0.03 0.06,0.04 0.05,0.04 0.04,0.04 0.05,0.04 0.04,0.05 0.02,0.03 0.01,0.03 0.02,0.03 0.02,0.03 0.01,0.03 0.01,0.03 0.01,0.03 0.02,0.04 0.01,0.03 v 0.04 l 0.01,0.04 0.01,0.04 v 0.04 l 0.01,0.04 v 0.05 0.04 c 0,1 -0.95,1 -1.64,1 h -29.85 c -0.7,0 -1.64,0 -1.64,-1 0,-0.98 0.94,-0.98 1.69,-0.98 z"
           inkscape:connector-curvature="0"
           style="fill:#ff0000;stroke-width:0" /><path
           id="path7430"
           d="m 574.76,412.59 h 0.06 0.07 0.14 0.13 l 0.07,0.01 h 0.07 l 0.07,0.01 0.07,0.01 0.07,0.01 0.07,0.01 0.07,0.01 0.06,0.02 0.06,0.02 0.07,0.02 0.06,0.03 0.05,0.02 0.06,0.04 0.05,0.03 0.05,0.04 0.05,0.04 0.04,0.05 0.02,0.02 0.02,0.03 0.02,0.02 0.01,0.03 0.02,0.03 0.02,0.03 0.01,0.03 0.01,0.04 0.01,0.03 0.02,0.04 0.01,0.03 v 0.04 l 0.01,0.04 0.01,0.04 v 0.04 l 0.01,0.05 v 0.04 0.05 c 0,1 -0.95,1 -1.69,1 h -29.75 c -0.75,0 -1.69,0 -1.69,-1 0,-1 0.94,-1 1.64,-1 z"
           inkscape:connector-curvature="0"
           style="fill:#ff0000;stroke-width:0" /><path
           id="path7432"
           d="m 625.98,417.41 h 0.16 l 0.16,0.01 h 0.15 0.08 l 0.08,0.01 0.08,0.01 h 0.07 l 0.07,0.01 0.07,0.02 0.07,0.01 0.07,0.02 0.07,0.02 0.06,0.02 0.06,0.02 0.06,0.03 0.06,0.03 0.05,0.04 0.05,0.04 0.04,0.04 0.05,0.05 0.04,0.05 0.01,0.02 0.02,0.03 0.02,0.03 0.01,0.03 0.01,0.03 0.02,0.03 0.01,0.04 0.01,0.03 0.01,0.04 0.01,0.04 v 0.04 l 0.01,0.04 v 0.04 l 0.01,0.04 v 0.05 0.04 c 0,1 -0.91,1 -1.75,1 h -26.95 c -0.85,0 -1.74,0 -1.74,-1 0,-1 0.89,-1 1.74,-1 z"
           inkscape:connector-curvature="0"
           style="fill:#ff0000;stroke-width:0" /><path
           id="path7434"
           d="m 646.07,437.1 -0.01,0.1 v 0.09 l -0.01,0.09 -0.02,0.09 -0.01,0.08 -0.03,0.09 -0.02,0.08 -0.03,0.08 -0.03,0.08 -0.04,0.08 -0.04,0.08 -0.05,0.07 -0.04,0.07 -0.06,0.07 -0.05,0.06 -0.06,0.07 -0.06,0.05 -0.06,0.06 -0.07,0.05 -0.07,0.05 -0.08,0.05 -0.07,0.04 -0.08,0.04 -0.09,0.04 -0.08,0.03 -0.09,0.03 -0.1,0.02 -0.09,0.02 -0.1,0.02 -0.1,0.01 -0.1,0.01 h -0.11 c -1.36,0 -2.7,-1.3 -2.7,-2.64 0,-0.96 0.7,-1.8 1.91,-1.8 1.14,0 2.64,1.14 2.64,2.64 z"
           inkscape:connector-curvature="0"
           style="fill:#ff0000;stroke-width:0" /><path
           id="path7436"
           d="m 642.27,418.37 0.05,0.13 0.05,0.12 0.05,0.12 0.05,0.11 0.04,0.1 0.04,0.1 0.04,0.1 0.03,0.09 0.03,0.08 0.04,0.08 0.03,0.08 0.02,0.08 0.03,0.07 0.03,0.08 0.05,0.14 0.05,0.14 0.05,0.14 0.03,0.08 0.03,0.07 0.03,0.08 0.02,0.08 0.04,0.09 0.03,0.09 0.03,0.09 0.04,0.1 0.03,0.1 0.04,0.11 0.05,0.12 0.04,0.12 c 0.41,1 0.66,1.69 0.66,2.64 0,2.23 -1.59,4.08 -4.09,4.08 -4.68,0 -6.58,-7.22 -6.58,-7.68 0,-0.5 0.5,-0.5 0.61,-0.5 0.5,0 0.54,0.11 0.79,0.91 1.35,4.69 3.33,6.17 5.03,6.17 0.4,0 1.25,0 1.25,-1.59 0,-1.05 -0.35,-2.09 -0.56,-2.59 -0.39,-1.3 -2.64,-7.07 -3.44,-9.22 -0.48,-1.28 -1.13,-2.94 -1.13,-3.99 0,-2.33 1.68,-4.08 4.09,-4.08 4.67,0 6.51,7.22 6.51,7.68 0,0.5 -0.43,0.5 -0.59,0.5 -0.5,0 -0.5,-0.16 -0.75,-0.91 -0.89,-3.13 -2.53,-6.17 -5.08,-6.17 -0.84,0 -1.2,0.5 -1.2,1.64 0,1.25 0.31,1.95 1.45,4.98 z"
           inkscape:connector-curvature="0"
           style="fill:#ff0000;stroke-width:0" /><path
           id="path7438"
           d="m 679.21,424.49 -0.01,0.21 v 0.2 l -0.02,0.2 -0.01,0.19 -0.03,0.18 -0.02,0.18 -0.03,0.17 -0.04,0.17 -0.04,0.15 -0.04,0.16 -0.05,0.14 -0.05,0.14 -0.06,0.14 -0.06,0.12 -0.06,0.12 -0.07,0.12 -0.06,0.11 -0.08,0.1 -0.07,0.09 -0.08,0.09 -0.08,0.08 -0.08,0.07 -0.09,0.07 -0.09,0.06 -0.09,0.05 -0.09,0.05 -0.09,0.04 -0.1,0.03 -0.1,0.02 -0.09,0.02 -0.11,0.01 -0.1,0.01 c -1.29,0 -2.64,-1.19 -2.64,-2.35 0,-0.48 0.24,-1.03 0.74,-1.48 0.86,-0.75 1.75,-2.1 1.75,-4.19 0,-2 -0.96,-4.83 -2.49,-7.12 -1.5,-2.14 -3.34,-3.83 -5.68,-3.83 -2.85,0 -4.4,1.78 -4.83,4.47 0.54,1.29 1.68,4.48 1.68,5.89 0,0.59 -0.25,1.09 -0.89,1.09 -0.4,0 -0.95,-0.11 -1.34,-0.84 -0.55,-1 -1.16,-4.24 -1.16,-6.03 -1.64,-2.35 -3.62,-4.58 -6.76,-4.58 -3.3,0 -4.35,2.94 -4.35,5.72 0,6.23 5.1,11.47 5.1,12.11 0,0.54 -0.41,0.95 -0.95,0.95 -0.66,0 -1,-0.66 -1.3,-1.11 -2.55,-3.69 -4.44,-9.61 -4.44,-14.14 0,-3.44 1.16,-7.13 5.24,-7.13 3.53,0 5.87,2.49 7.67,5.24 0.45,-2.89 2.39,-5.24 5.48,-5.24 3.89,0 6.28,3.04 8.06,6.79 1.21,2.43 3.1,9.2 3.1,12.29 z"
           inkscape:connector-curvature="0"
           style="fill:#ff0000;stroke-width:0" /><path
           id="path7440"
           d="m 698.02,409.51 v 0.71 l -0.02,0.68 -0.03,0.66 -0.04,0.64 -0.06,0.62 -0.08,0.59 -0.09,0.58 -0.1,0.56 -0.13,0.55 -0.15,0.52 -0.17,0.52 -0.19,0.5 -0.21,0.49 -0.24,0.48 -0.26,0.47 -0.14,0.23 -0.15,0.23 c -1.08,1.61 -3.23,3 -6.03,3 v -0.99 c 1.89,0 3.7,-1.14 4.33,-3.17 0.56,-1.87 0.59,-4.39 0.59,-7.42 0,-2.58 0,-5.16 -0.45,-7.34 -0.7,-3.17 -3.06,-3.94 -4.47,-3.94 v 0 c -1.59,0 -3.72,0.94 -4.42,3.8 -0.49,2.04 -0.49,4.9 -0.49,7.48 0,2.55 0,5.2 0.52,7.11 0.73,2.75 2.97,3.48 4.39,3.48 v 0.99 c -8.08,0 -8.08,-9.52 -8.08,-12.03 0,-2.5 0,-11.81 8.08,-11.81 8.09,0 8.09,9.31 8.09,11.81 z"
           inkscape:connector-curvature="0"
           style="fill:#ff0000;stroke-width:0" /><path
           id="path7442"
           d="m 724.38,440.74 -0.04,0.06 -0.03,0.06 -0.03,0.05 -0.02,0.05 -0.03,0.05 -0.03,0.05 -0.03,0.05 -0.02,0.04 -0.03,0.04 -0.03,0.04 -0.02,0.04 -0.03,0.04 -0.03,0.03 -0.03,0.03 -0.03,0.03 -0.03,0.03 -0.03,0.02 -0.04,0.03 -0.04,0.02 -0.03,0.02 -0.05,0.02 -0.04,0.02 -0.05,0.01 -0.04,0.01 -0.06,0.02 -0.05,0.01 h -0.06 l -0.06,0.01 -0.07,0.01 h -0.07 -0.07 -0.04 -0.04 c -0.85,0 -0.94,-0.25 -1.28,-0.89 l -0.32,-4.09 13.41,-26.91 h -26.86 l 13.45,26.91 0.32,4.09 -16.85,-33.78 c -0.25,-0.45 -0.25,-0.55 -0.25,-0.59 0,-0.41 0.3,-0.41 1.1,-0.41 h 34.58 c 0.79,0 1.09,0 1.09,0.41 0,0.04 0,0.14 -0.25,0.59 z"
           inkscape:connector-curvature="0"
           style="fill:#ff0000;stroke-width:0" /><path
           id="path7444"
           d="m 758.72,417.23 h 0.15 0.16 0.15 l 0.07,0.01 h 0.08 l 0.07,0.01 h 0.07 l 0.07,0.01 0.07,0.01 0.07,0.01 0.07,0.02 0.06,0.01 0.06,0.02 0.06,0.02 0.06,0.03 0.06,0.02 0.05,0.03 0.05,0.04 0.04,0.03 0.04,0.04 0.04,0.04 0.04,0.05 0.01,0.02 0.02,0.03 0.01,0.03 0.01,0.02 0.02,0.03 0.01,0.03 v 0.03 l 0.01,0.03 0.01,0.04 0.01,0.03 v 0.04 0.03 l 0.01,0.04 v 0.04 c 0,0.69 -0.61,0.69 -1.46,0.69 h -8.06 c 1.19,4.23 3.99,7.12 8.52,7.12 h 1.54 c 0.85,0 1.64,0 1.64,0.86 0,0.69 -0.65,0.69 -1.5,0.69 h -1.73 c -6.48,0 -13.16,-4.98 -13.16,-12.59 0,-5.49 3.74,-9.43 9.02,-9.43 3.23,0 6.48,1.99 6.48,2.55 0,0.14 -0.06,0.69 -0.5,0.69 -0.11,0 -0.2,0 -0.65,-0.3 -1.55,-1 -3.39,-1.84 -5.24,-1.84 -2.89,0 -5.37,2.09 -5.37,6.48 0,1.74 0.4,3.63 0.54,4.24 z"
           inkscape:connector-curvature="0"
           style="fill:#ff0000;stroke-width:0" /><path
           id="path7446"
           d="m 818.34,456.04 -0.14,-0.07 -0.18,-0.09 -0.2,-0.11 -0.24,-0.12 -0.27,-0.13 -0.3,-0.14 -0.33,-0.15 -0.35,-0.16 -0.37,-0.17 -0.4,-0.18 -0.42,-0.18 -0.44,-0.19 -0.47,-0.19 -0.48,-0.19 -0.49,-0.19 -0.52,-0.19 -0.52,-0.18 -0.54,-0.19 -0.56,-0.18 -0.56,-0.17 -0.57,-0.17 -0.59,-0.16 -0.58,-0.15 -0.6,-0.14 -0.6,-0.13 -0.6,-0.11 -0.61,-0.1 -0.6,-0.09 -0.61,-0.06 -0.6,-0.05 -0.6,-0.04 -0.59,-0.01 c -3.64,0 -5.83,0.89 -9.27,2.39 -2.39,1 -4.83,1.99 -8.26,1.99 -5.85,0 -11.61,-2.78 -16.8,-5.28 l 0.5,-0.99 c 1.34,0.69 8.62,4.38 14.94,4.38 3.64,0 5.84,-0.89 9.28,-2.39 2.39,-1 4.82,-1.99 8.26,-1.99 5.83,0 11.61,2.78 16.78,5.28 z"
           inkscape:connector-curvature="0"
           style="fill:#ff0000;stroke-width:0" /><path
           id="path7448"
           d="m 800.05,419.62 h -2.34 c -1.09,-6.88 -2.48,-11.32 -11.7,-11.32 h -7.58 v 14.05 h 2.75 c 4.78,0 5.28,-2.14 5.28,-5.83 h 2.34 v 14 h -2.34 c 0,-3.68 -0.45,-5.82 -5.28,-5.82 h -2.75 v 12.79 h 7.58 c 8.03,0 9.31,-3.62 10.11,-9.65 h 2.34 l -1.55,12 h -30.93 v -2.35 h 5.39 V 408.3 h -5.39 v -2.34 h 31.79 z"
           inkscape:connector-curvature="0"
           style="fill:#ff0000;stroke-width:0" /><path
           id="path7450"
           d="m 819.7,409.51 v 0.71 l -0.02,0.68 -0.03,0.66 -0.04,0.64 -0.06,0.62 -0.08,0.59 -0.09,0.58 -0.1,0.56 -0.13,0.55 -0.15,0.52 -0.17,0.52 -0.19,0.5 -0.21,0.49 -0.24,0.48 -0.26,0.47 -0.14,0.23 -0.15,0.23 c -1.08,1.61 -3.23,3 -6.03,3 v -0.99 c 1.89,0 3.7,-1.14 4.33,-3.17 0.56,-1.87 0.59,-4.39 0.59,-7.42 0,-2.58 0,-5.16 -0.45,-7.34 -0.7,-3.17 -3.06,-3.94 -4.47,-3.94 v 0 c -1.59,0 -3.72,0.94 -4.42,3.8 -0.49,2.04 -0.49,4.9 -0.49,7.48 0,2.55 0,5.2 0.52,7.11 0.73,2.75 2.97,3.48 4.39,3.48 v 0.99 c -8.08,0 -8.08,-9.52 -8.08,-12.03 0,-2.5 0,-11.81 8.08,-11.81 8.09,0 8.09,9.31 8.09,11.81 z"
           inkscape:connector-curvature="0"
           style="fill:#ff0000;stroke-width:0" /><path
           id="path7452"
           d="m 840.52,394.01 v 0.02 0.03 0.01 0.02 l -0.01,0.01 v 0.02 l -0.01,0.02 v 0.01 l -0.01,0.02 -0.01,0.02 -0.01,0.02 -0.02,0.03 -0.01,0.02 -0.02,0.03 -0.02,0.03 -0.03,0.03 -0.02,0.04 -0.03,0.03 -0.02,0.02 -0.02,0.02 -0.01,0.02 -0.02,0.02 -0.02,0.02 -0.02,0.03 -0.02,0.02 -0.02,0.02 -0.03,0.03 -0.02,0.03 -0.02,0.02 -0.03,0.03 -0.03,0.03 -0.02,0.03 -0.03,0.03 -0.03,0.03 -0.03,0.03 -0.03,0.03 -0.04,0.04 -0.03,0.03 -0.04,0.04 -0.03,0.03 -0.04,0.04 -0.04,0.04 c -6.22,6.28 -7.81,15.69 -7.81,23.31 0,8.68 1.89,17.35 8.01,23.57 0.64,0.61 0.64,0.7 0.64,0.86 0,0.34 -0.18,0.48 -0.48,0.48 -0.5,0 -4.99,-3.37 -7.92,-9.7 -2.55,-5.49 -3.14,-11.02 -3.14,-15.21 0,-3.89 0.54,-9.9 3.28,-15.54 2.98,-6.13 7.28,-9.36 7.78,-9.36 0.3,0 0.48,0.14 0.48,0.5 z"
           inkscape:connector-curvature="0"
           style="fill:#ff0000;stroke-width:0" /><path
           id="path7454"
           d="m 860.59,418.21 5.83,6.49 c 0.65,0.7 0.95,1.04 5.09,1.04 v 2.35 c -1.75,-0.11 -4.34,-0.16 -4.59,-0.16 -1.25,0 -3.74,0.11 -5.13,0.16 v -2.35 c 0.69,0 1.3,-0.11 1.89,-0.45 -0.2,-0.3 -0.2,-0.39 -0.4,-0.59 l -4.18,-4.69 -4.88,5.73 h 2 v 2.35 c -1.3,-0.05 -4.44,-0.16 -6.04,-0.16 -1.59,0 -3.84,0.11 -5.48,0.16 v -2.35 h 3.53 l 7.78,-9.17 -6.53,-7.33 c -0.84,-0.94 -2.64,-0.94 -5.03,-0.94 v -2.34 c 1.75,0.09 4.34,0.16 4.58,0.16 1.25,0 4.14,-0.11 5.14,-0.16 v 2.34 c -0.89,0 -1.85,0.25 -1.85,0.55 0,0.05 0,0.1 0.35,0.5 l 4.84,5.42 5.47,-6.47 h -1.94 v -2.34 c 1.3,0.05 4.33,0.16 5.99,0.16 1.59,0 3.82,-0.11 5.47,-0.16 v 2.34 h -3.53 z"
           inkscape:connector-curvature="0"
           style="fill:#ff0000;stroke-width:0" /><path
           id="path7456"
           d="m 886.01,447.76 v -1.25 c 2.33,0 2.61,-0.25 2.61,-1.96 v -7.21 c -1.28,1.26 -2.96,1.98 -4.88,1.98 l 0.17,-0.97 c 1.68,0 3.18,-0.76 4.14,-2.01 0.43,-0.57 0.43,-0.6 0.43,-1.27 v -7.45 c -0.91,-1.64 -2.68,-3.03 -4.94,-3.03 -1.95,0 -3.36,1.15 -4.05,2.15 -0.7,1.05 -1.11,2.46 -1.11,4.67 0,0.82 0,3.43 1.42,5.07 1.4,1.56 3.1,1.87 4.11,1.87 l -0.17,0.97 c -4.64,0 -8.53,-3.48 -8.53,-7.87 0,-4.35 3.69,-7.83 8.11,-7.83 2.86,0 4.56,1.53 5.16,2.15 v -2.15 l 5.37,0.34 v 1.25 c -2.34,0 -2.62,0.25 -2.62,1.95 v 20.99 z"
           inkscape:connector-curvature="0"
           style="fill:#ff0000;stroke-width:0" /><path
           id="path7458"
           d="m 910.89,431.9 h 0.06 0.07 0.06 0.06 0.06 0.05 l 0.05,0.01 h 0.05 l 0.05,0.01 h 0.04 l 0.04,0.01 0.04,0.01 0.04,0.01 0.03,0.01 0.03,0.02 0.03,0.02 0.03,0.02 0.03,0.02 0.02,0.02 0.02,0.03 0.02,0.03 0.02,0.03 0.01,0.02 0.01,0.02 v 0.02 l 0.01,0.02 0.01,0.02 v 0.02 l 0.01,0.02 v 0.03 l 0.01,0.02 v 0.03 l 0.01,0.02 v 0.03 0.03 0.03 l 0.01,0.03 v 0.03 0.04 0.03 0.03 0.04 c 0,3.06 -1.72,6.83 -6.9,6.83 -4.57,0 -8.05,-3.63 -8.05,-7.92 0,-4.43 3.87,-7.97 8.5,-7.97 4.7,0 6.45,3.76 6.45,4.53 0,0.14 -0.08,0.48 -0.59,0.48 -0.46,0 -0.53,-0.22 -0.63,-0.56 -1.09,-2.81 -3.73,-3.34 -4.98,-3.34 -1.64,0 -3.2,0.73 -4.25,2.06 -1.3,1.62 -1.33,3.75 -1.33,5.11 l 0.03,0.9 c 0.39,4.93 3.52,5.72 4.85,5.72 4.28,0 4.42,-4.84 4.46,-5.72 h -9.31 l -0.03,-0.9 z"
           inkscape:connector-curvature="0"
           style="fill:#ff0000;stroke-width:0" /><path
           id="path7460"
           d="m 926.52,438.6 v 0.06 0.05 0.05 0.05 0.05 0.05 l -0.01,0.04 v 0.04 0.05 0.03 l -0.01,0.04 -0.01,0.04 v 0.03 l -0.01,0.04 -0.01,0.03 -0.01,0.03 -0.01,0.03 -0.02,0.02 -0.01,0.03 -0.02,0.02 -0.02,0.02 -0.02,0.02 -0.02,0.01 -0.02,0.02 -0.03,0.01 -0.03,0.02 -0.03,0.01 h -0.03 l -0.02,0.01 h -0.02 -0.02 -0.02 l -0.02,0.01 h -0.02 -0.02 -0.03 c -0.17,0 -0.25,0 -0.7,-0.42 -0.06,-0.04 -0.4,-0.35 -0.62,-0.54 -1.05,0.74 -2.36,0.96 -3.66,0.96 -4.98,0 -6.17,-2.63 -6.17,-4.36 0,-1.13 0.5,-2.02 1.33,-2.72 1.32,-1.16 2.65,-1.39 4.81,-1.75 1.73,-0.31 4.56,-0.8 4.56,-3.13 0,-1.35 -0.93,-2.96 -4.28,-2.96 -3.34,0 -4.56,2.2 -5.2,4.56 -0.1,0.45 -0.14,0.59 -0.63,0.59 -0.59,0 -0.59,-0.23 -0.59,-0.94 v -4.28 c 0,-0.59 0,-0.9 0.5,-0.9 0.31,0 0.97,0.73 1.67,1.5 1.53,-1.44 3.41,-1.5 4.25,-1.5 4.53,0 6.2,2.43 6.2,4.9 0,1.33 -0.59,2.38 -1.5,3.21 -1.32,1.22 -2.93,1.5 -4.15,1.72 -2.78,0.48 -5.05,0.9 -5.05,2.75 0,1.1 0.94,2.46 4.25,2.46 4.05,0 4.22,-2.82 4.28,-3.82 0.05,-0.39 0.45,-0.39 0.6,-0.39 0.59,0 0.59,0.25 0.59,0.9 z"
           inkscape:connector-curvature="0"
           style="fill:#ff0000;stroke-width:0" /><path
           id="path7462"
           d="m 946.07,418.41 v 0.37 l -0.01,0.39 -0.01,0.39 -0.01,0.41 -0.04,0.84 -0.06,0.88 -0.08,0.92 -0.11,0.95 -0.13,0.98 -0.17,1 -0.19,1.02 -0.23,1.04 -0.27,1.05 -0.3,1.06 -0.35,1.06 -0.4,1.07 -0.21,0.53 -0.22,0.53 -0.24,0.53 -0.25,0.53 c -2.99,6.13 -7.27,9.36 -7.77,9.36 -0.29,0 -0.5,-0.19 -0.5,-0.48 0,-0.16 0,-0.25 0.94,-1.16 4.89,-4.92 7.74,-12.84 7.74,-23.27 0,-8.51 -1.85,-17.28 -8.04,-23.56 -0.64,-0.59 -0.64,-0.7 -0.64,-0.84 0,-0.3 0.21,-0.5 0.5,-0.5 0.5,0 4.97,3.39 7.93,9.72 2.53,5.47 3.12,11 3.12,15.18 z"
           inkscape:connector-curvature="0"
           style="fill:#ff0000;stroke-width:0" /></g>    </g>
  </g>
</svg>
