<?xml version="1.0" encoding="UTF-8" standalone="no"?>
<!-- Created with Inkscape (http://www.inkscape.org/) -->

<svg
   xmlns:ns0="http://www.iki.fi/pav/software/textext/"
   xmlns:dc="http://purl.org/dc/elements/1.1/"
   xmlns:cc="http://creativecommons.org/ns#"
   xmlns:rdf="http://www.w3.org/1999/02/22-rdf-syntax-ns#"
   xmlns:svg="http://www.w3.org/2000/svg"
   xmlns="http://www.w3.org/2000/svg"
   xmlns:xlink="http://www.w3.org/1999/xlink"
   xmlns:sodipodi="http://sodipodi.sourceforge.net/DTD/sodipodi-0.dtd"
   xmlns:inkscape="http://www.inkscape.org/namespaces/inkscape"
   sodipodi:docname="Taper2D.svg"
   inkscape:version="0.91 r13725"
   version="1.1"
   id="svg2"
   viewBox="0 0 823.61371 436.48619"
   height="123.1861mm"
   width="232.44209mm">
  <sodipodi:namedview
     inkscape:window-maximized="1"
     inkscape:window-y="0"
     inkscape:window-x="0"
     inkscape:window-height="1714"
     inkscape:window-width="3200"
     showgrid="true"
     inkscape:current-layer="layer1"
     inkscape:document-units="px"
     inkscape:cy="230.31959"
     inkscape:cx="413.65836"
     inkscape:zoom="1.4046842"
     inkscape:pageshadow="2"
     inkscape:pageopacity="0.0"
     borderopacity="1.0"
     bordercolor="#666666"
     pagecolor="#ffffff"
     id="base"
     fit-margin-top="0"
     fit-margin-left="0"
     fit-margin-right="0"
     fit-margin-bottom="0">
    <inkscape:grid
       originy="-312.52755"
       originx="-26.151392"
       spacingx="5"
       spacingy="5.0000001"
       id="grid4136"
       type="xygrid" />
  </sodipodi:namedview>
  <defs
     id="defs4">
    <inkscape:path-effect
       is_visible="true"
       id="path-effect16381"
       effect="spiro" />
    <marker
       inkscape:isstock="true"
       style="overflow:visible"
       id="marker16221"
       refX="0"
       refY="0"
       orient="auto"
       inkscape:stockid="Arrow2Mend">
      <path
         transform="scale(-0.6,-0.6)"
         d="M 8.7185878,4.0337352 -2.2072895,0.01601326 8.7185884,-4.0017078 c -1.7454984,2.3720609 -1.7354408,5.6174519 -6e-7,8.035443 z"
         style="fill:#0000ff;fill-opacity:1;fill-rule:evenodd;stroke:#0000ff;stroke-width:0.625;stroke-linejoin:round;stroke-opacity:1"
         id="path16223"
         inkscape:connector-curvature="0" />
    </marker>
    <marker
       inkscape:stockid="Arrow2Mstart"
       orient="auto"
       refY="0"
       refX="0"
       id="marker16211"
       style="overflow:visible"
       inkscape:isstock="true">
      <path
         id="path16213"
         style="fill:#0000ff;fill-opacity:1;fill-rule:evenodd;stroke:#0000ff;stroke-width:0.625;stroke-linejoin:round;stroke-opacity:1"
         d="M 8.7185878,4.0337352 -2.2072895,0.01601326 8.7185884,-4.0017078 c -1.7454984,2.3720609 -1.7354408,5.6174519 -6e-7,8.035443 z"
         transform="scale(0.6,0.6)"
         inkscape:connector-curvature="0" />
    </marker>
    <marker
       inkscape:stockid="Arrow2Mstart"
       orient="auto"
       refY="0"
       refX="0"
       id="marker12158"
       style="overflow:visible"
       inkscape:isstock="true">
      <path
         inkscape:connector-curvature="0"
         id="path12160"
         style="fill:#0000ff;fill-opacity:1;fill-rule:evenodd;stroke:#0000ff;stroke-width:0.625;stroke-linejoin:round;stroke-opacity:1"
         d="M 8.7185878,4.0337352 -2.2072895,0.01601326 8.7185884,-4.0017078 c -1.7454984,2.3720609 -1.7354408,5.6174519 -6e-7,8.035443 z"
         transform="scale(0.6,0.6)" />
    </marker>
    <marker
       inkscape:stockid="Arrow2Mend"
       orient="auto"
       refY="0"
       refX="0"
       id="marker12114"
       style="overflow:visible"
       inkscape:isstock="true">
      <path
         inkscape:connector-curvature="0"
         id="path12116"
         style="fill:#0000ff;fill-opacity:1;fill-rule:evenodd;stroke:#0000ff;stroke-width:0.625;stroke-linejoin:round;stroke-opacity:1"
         d="M 8.7185878,4.0337352 -2.2072895,0.01601326 8.7185884,-4.0017078 c -1.7454984,2.3720609 -1.7354408,5.6174519 -6e-7,8.035443 z"
         transform="scale(-0.6,-0.6)" />
    </marker>
    <inkscape:path-effect
       is_visible="true"
       id="path-effect12106"
       effect="spiro" />
    <inkscape:path-effect
       effect="spiro"
       id="path-effect12102"
       is_visible="true" />
    <marker
       inkscape:collect="always"
       inkscape:stockid="Arrow2Mend"
       orient="auto"
       refY="0"
       refX="0"
       id="marker10428"
       style="overflow:visible"
       inkscape:isstock="true">
      <path
         inkscape:connector-curvature="0"
         id="path10430"
         style="fill:#0000ff;fill-opacity:1;fill-rule:evenodd;stroke:#0000ff;stroke-width:0.625;stroke-linejoin:round;stroke-opacity:1"
         d="M 8.7185878,4.0337352 -2.2072895,0.01601326 8.7185884,-4.0017078 c -1.7454984,2.3720609 -1.7354408,5.6174519 -6e-7,8.035443 z"
         transform="scale(-0.6,-0.6)" />
    </marker>
    <marker
       inkscape:collect="always"
       inkscape:isstock="true"
       style="overflow:visible"
       id="marker10418"
       refX="0"
       refY="0"
       orient="auto"
       inkscape:stockid="Arrow2Mstart">
      <path
         inkscape:connector-curvature="0"
         transform="scale(0.6,0.6)"
         d="M 8.7185878,4.0337352 -2.2072895,0.01601326 8.7185884,-4.0017078 c -1.7454984,2.3720609 -1.7354408,5.6174519 -6e-7,8.035443 z"
         style="fill:#0000ff;fill-opacity:1;fill-rule:evenodd;stroke:#0000ff;stroke-width:0.625;stroke-linejoin:round;stroke-opacity:1"
         id="path10420" />
    </marker>
    <inkscape:path-effect
       effect="spiro"
       id="path-effect10384"
       is_visible="true" />
    <marker
       inkscape:isstock="true"
       style="overflow:visible"
       id="marker9023"
       refX="0"
       refY="0"
       orient="auto"
       inkscape:stockid="Arrow2Mend"
       inkscape:collect="always">
      <path
         inkscape:connector-curvature="0"
         transform="scale(-0.6,-0.6)"
         d="M 8.7185878,4.0337352 -2.2072895,0.01601326 8.7185884,-4.0017078 c -1.7454984,2.3720609 -1.7354408,5.6174519 -6e-7,8.035443 z"
         style="fill:#000000;fill-opacity:1;fill-rule:evenodd;stroke:#000000;stroke-width:0.625;stroke-linejoin:round;stroke-opacity:1"
         id="path9025" />
    </marker>
    <inkscape:path-effect
       is_visible="true"
       id="path-effect9021"
       effect="spiro" />
    <marker
       inkscape:stockid="Arrow2Mend"
       orient="auto"
       refY="0"
       refX="0"
       id="marker8771"
       style="overflow:visible"
       inkscape:isstock="true"
       inkscape:collect="always">
      <path
         inkscape:connector-curvature="0"
         id="path8773"
         style="fill:#000000;fill-opacity:1;fill-rule:evenodd;stroke:#000000;stroke-width:0.625;stroke-linejoin:round;stroke-opacity:1"
         d="M 8.7185878,4.0337352 -2.2072895,0.01601326 8.7185884,-4.0017078 c -1.7454984,2.3720609 -1.7354408,5.6174519 -6e-7,8.035443 z"
         transform="scale(-0.6,-0.6)" />
    </marker>
    <marker
       inkscape:isstock="true"
       style="overflow:visible"
       id="marker8761"
       refX="0"
       refY="0"
       orient="auto"
       inkscape:stockid="Arrow2Mstart">
      <path
         inkscape:connector-curvature="0"
         transform="scale(0.6,0.6)"
         d="M 8.7185878,4.0337352 -2.2072895,0.01601326 8.7185884,-4.0017078 c -1.7454984,2.3720609 -1.7354408,5.6174519 -6e-7,8.035443 z"
         style="fill:#0000ff;fill-opacity:1;fill-rule:evenodd;stroke:#0000ff;stroke-width:0.625;stroke-linejoin:round;stroke-opacity:1"
         id="path8763" />
    </marker>
    <inkscape:path-effect
       effect="spiro"
       id="path-effect8759"
       is_visible="true" />
    <marker
       inkscape:stockid="Arrow2Mend"
       orient="auto"
       refY="0"
       refX="0"
       id="marker6076"
       style="overflow:visible"
       inkscape:isstock="true">
      <path
         inkscape:connector-curvature="0"
         id="path6078"
         style="fill:#0000ff;fill-opacity:1;fill-rule:evenodd;stroke:#0000ff;stroke-width:0.625;stroke-linejoin:round;stroke-opacity:1"
         d="M 8.7185878,4.0337352 -2.2072895,0.01601326 8.7185884,-4.0017078 c -1.7454984,2.3720609 -1.7354408,5.6174519 -6e-7,8.035443 z"
         transform="scale(-0.6,-0.6)" />
    </marker>
    <marker
       inkscape:isstock="true"
       style="overflow:visible"
       id="marker6066"
       refX="0"
       refY="0"
       orient="auto"
       inkscape:stockid="Arrow2Mstart">
      <path
         inkscape:connector-curvature="0"
         transform="scale(0.6,0.6)"
         d="M 8.7185878,4.0337352 -2.2072895,0.01601326 8.7185884,-4.0017078 c -1.7454984,2.3720609 -1.7354408,5.6174519 -6e-7,8.035443 z"
         style="fill:#0000ff;fill-opacity:1;fill-rule:evenodd;stroke:#0000ff;stroke-width:0.625;stroke-linejoin:round;stroke-opacity:1"
         id="path6068" />
    </marker>
    <inkscape:path-effect
       effect="spiro"
       id="path-effect6032"
       is_visible="true" />
    <marker
       inkscape:stockid="Arrow2Mstart"
       orient="auto"
       refY="0"
       refX="0"
       id="Arrow2Mstart"
       style="overflow:visible"
       inkscape:isstock="true"
       inkscape:collect="always">
      <path
         inkscape:connector-curvature="0"
         id="path4297"
         style="fill:#0000ff;fill-opacity:1;fill-rule:evenodd;stroke:#0000ff;stroke-width:0.625;stroke-linejoin:round;stroke-opacity:1"
         d="M 8.7185878,4.0337352 -2.2072895,0.01601326 8.7185884,-4.0017078 c -1.7454984,2.3720609 -1.7354408,5.6174519 -6e-7,8.035443 z"
         transform="scale(0.6,0.6)" />
    </marker>
    <marker
       inkscape:isstock="true"
       style="overflow:visible"
       id="marker5761"
       refX="0"
       refY="0"
       orient="auto"
       inkscape:stockid="Arrow2Mend"
       inkscape:collect="always">
      <path
         inkscape:connector-curvature="0"
         transform="scale(-0.6,-0.6)"
         d="M 8.7185878,4.0337352 -2.2072895,0.01601326 8.7185884,-4.0017078 c -1.7454984,2.3720609 -1.7354408,5.6174519 -6e-7,8.035443 z"
         style="fill:#0000ff;fill-opacity:1;fill-rule:evenodd;stroke:#0000ff;stroke-width:0.625;stroke-linejoin:round;stroke-opacity:1"
         id="path5763" />
    </marker>
    <inkscape:path-effect
       is_visible="true"
       id="path-effect5759"
       effect="spiro" />
    <marker
       inkscape:stockid="Arrow1Mend"
       orient="auto"
       refY="0"
       refX="0"
       id="Arrow1Mend"
       style="overflow:visible"
       inkscape:isstock="true">
      <path
         inkscape:connector-curvature="0"
         id="path4896"
         d="M 0,0 5,-5 -12.5,0 5,5 0,0 Z"
         style="fill:#0000ff;fill-opacity:1;fill-rule:evenodd;stroke:#0000ff;stroke-width:1pt;stroke-opacity:1"
         transform="matrix(-0.4,0,0,-0.4,-4,0)" />
    </marker>
    <inkscape:path-effect
       effect="spiro"
       id="path-effect4881"
       is_visible="true" />
    <inkscape:path-effect
       effect="spiro"
       id="path-effect4769"
       is_visible="true" />
    <inkscape:path-effect
       effect="spiro"
       id="path-effect4765"
       is_visible="true" />
    <inkscape:path-effect
       is_visible="true"
       id="path-effect4761"
       effect="spiro" />
    <inkscape:path-effect
       effect="spiro"
       id="path-effect4757"
       is_visible="true" />
    <inkscape:path-effect
       is_visible="true"
       id="path-effect4753"
       effect="spiro" />
    <inkscape:path-effect
       is_visible="true"
       id="path-effect4739"
       effect="spiro" />
    <inkscape:path-effect
       effect="spiro"
       id="path-effect4735"
       is_visible="true" />
    <inkscape:path-effect
       is_visible="true"
       id="path-effect4725"
       effect="spiro" />
    <inkscape:path-effect
       effect="spiro"
       id="path-effect4717"
       is_visible="true" />
    <inkscape:path-effect
       is_visible="true"
       id="path-effect4713"
       effect="spiro" />
    <inkscape:path-effect
       is_visible="true"
       id="path-effect4709"
       effect="spiro" />
    <inkscape:path-effect
       effect="spiro"
       id="path-effect4705"
       is_visible="true" />
    <inkscape:path-effect
       effect="spiro"
       id="path-effect4701"
       is_visible="true" />
    <inkscape:path-effect
       is_visible="true"
       id="path-effect4697"
       effect="spiro" />
    <clipPath
       clipPathUnits="userSpaceOnUse"
       id="clipPath4208">
      <path
         d="M 0,0 612,0 612,792 0,792 0,0 Z"
         id="path4210"
         inkscape:connector-curvature="0" />
    </clipPath>
  </defs>
  <metadata
     id="metadata7">
    <rdf:RDF>
      <cc:Work
         rdf:about="">
        <dc:format>image/svg+xml</dc:format>
        <dc:type
           rdf:resource="http://purl.org/dc/dcmitype/StillImage" />
        <dc:title></dc:title>
      </cc:Work>
    </rdf:RDF>
  </metadata>
  <g
     style="display:inline"
     inkscape:label="p=0"
     inkscape:groupmode="layer"
     id="g15827"
     transform="translate(-26.151392,-303.34848)">
    <text
       sodipodi:linespacing="125%"
       id="text15853"
       y="712.36218"
       x="445"
       style="font-style:normal;font-weight:normal;font-size:80px;line-height:125%;font-family:sans-serif;letter-spacing:0px;word-spacing:0px;fill:#000000;fill-opacity:1;stroke:none;stroke-width:1px;stroke-linecap:butt;stroke-linejoin:miter;stroke-opacity:1"
       xml:space="preserve"><tspan
         y="712.36218"
         x="445"
         id="tspan15855"
         sodipodi:role="line" /></text>
    <path
       sodipodi:nodetypes="cccccccccc"
       inkscape:connector-curvature="0"
       inkscape:original-d="m 25,452.3622 c 250,0 250,0 250,0 l 162.5,-50 162.5,-50 250,0 0,300 -250,0 -325,-100 -250,0 z"
       inkscape:path-effect="#path-effect16381"
       id="path16379"
       d="m 25,452.3622 250,0 162.5,-50 162.5,-50 250,0 0,300 -250,0 -325,-100 -250,0 0,-100 z"
       style="opacity:0.54000005;fill:#ff0000;fill-opacity:1;fill-rule:evenodd;stroke:#000000;stroke-width:1px;stroke-linecap:butt;stroke-linejoin:miter;stroke-opacity:1" />
    <g
       id="g17590"
       style="fill:#0000ff;stroke:#0000ff"
       transform="matrix(5,0,0,5,-657.14286,-159.28571)"
       ns0:preamble="/home/homer/misc/physcmds.tex"
       ns0:text="$T_0(x)$">
      <defs
         id="defs17592">
        <g
           id="g17594">
          <symbol
             id="textext-df0de10d-0"
             overflow="visible"
             style="overflow:visible">
            <path
               id="path17597"
               d=""
               style="stroke:none"
               inkscape:connector-curvature="0" />
          </symbol>
          <symbol
             id="textext-df0de10d-1"
             overflow="visible"
             style="overflow:visible">
            <path
               id="path17600"
               d="m 4.25,-6.046875 c 0.078125,-0.28125 0.109375,-0.34375 0.234375,-0.375 0.09375,-0.015625 0.421875,-0.015625 0.625,-0.015625 1.015625,0 1.453125,0.03125 1.453125,0.8125 0,0.15625 -0.03125,0.546875 -0.078125,0.796875 0,0.046875 -0.03125,0.15625 -0.03125,0.1875 0,0.0625 0.03125,0.140625 0.125,0.140625 0.109375,0 0.125,-0.078125 0.15625,-0.234375 L 7,-6.46875 C 7.015625,-6.515625 7.015625,-6.609375 7.015625,-6.640625 7.015625,-6.75 6.921875,-6.75 6.75,-6.75 l -5.53125,0 c -0.234375,0 -0.25,0.015625 -0.328125,0.203125 l -0.59375,1.75 c 0,0.015625 -0.0625,0.15625 -0.0625,0.1875 0,0.046875 0.0625,0.109375 0.125,0.109375 0.09375,0 0.109375,-0.0625 0.171875,-0.21875 C 1.0625,-6.265625 1.328125,-6.4375 2.796875,-6.4375 l 0.390625,0 c 0.28125,0 0.28125,0.03125 0.28125,0.125 0,0.046875 -0.03125,0.171875 -0.046875,0.203125 L 2.09375,-0.78125 C 2,-0.421875 1.96875,-0.3125 0.90625,-0.3125 c -0.359375,0 -0.421875,0 -0.421875,0.1875 C 0.484375,0 0.59375,0 0.65625,0 c 0.265625,0 0.546875,-0.015625 0.8125,-0.015625 0.28125,0 0.578125,-0.015625 0.859375,-0.015625 0.28125,0 0.546875,0.015625 0.828125,0.015625 C 3.4375,-0.015625 3.734375,0 4.015625,0 c 0.09375,0 0.21875,0 0.21875,-0.203125 0,-0.109375 -0.078125,-0.109375 -0.34375,-0.109375 -0.234375,0 -0.375,0 -0.625,-0.015625 -0.296875,-0.03125 -0.375,-0.0625 -0.375,-0.21875 0,-0.015625 0,-0.0625 0.046875,-0.203125 z m 0,0"
               style="stroke:none"
               inkscape:connector-curvature="0" />
          </symbol>
          <symbol
             id="textext-df0de10d-2"
             overflow="visible"
             style="overflow:visible">
            <path
               id="path17603"
               d="M 3.328125,-3.015625 C 3.390625,-3.265625 3.625,-4.1875 4.3125,-4.1875 c 0.046875,0 0.296875,0 0.5,0.125 C 4.53125,-4 4.34375,-3.765625 4.34375,-3.515625 c 0,0.15625 0.109375,0.34375 0.375,0.34375 0.21875,0 0.53125,-0.171875 0.53125,-0.578125 0,-0.515625 -0.578125,-0.65625 -0.921875,-0.65625 -0.578125,0 -0.921875,0.53125 -1.046875,0.75 -0.25,-0.65625 -0.78125,-0.75 -1.078125,-0.75 -1.03125,0 -1.609375,1.28125 -1.609375,1.53125 0,0.109375 0.109375,0.109375 0.125,0.109375 0.078125,0 0.109375,-0.03125 0.125,-0.109375 0.34375,-1.0625 1,-1.3125 1.34375,-1.3125 0.1875,0 0.53125,0.09375 0.53125,0.671875 0,0.3125 -0.171875,0.96875 -0.53125,2.375 -0.15625,0.609375 -0.515625,1.03125 -0.953125,1.03125 -0.0625,0 -0.28125,0 -0.5,-0.125 0.25,-0.0625 0.46875,-0.265625 0.46875,-0.546875 0,-0.265625 -0.21875,-0.34375 -0.359375,-0.34375 -0.3125,0 -0.546875,0.25 -0.546875,0.578125 0,0.453125 0.484375,0.65625 0.921875,0.65625 0.671875,0 1.03125,-0.703125 1.046875,-0.75 0.125,0.359375 0.484375,0.75 1.078125,0.75 1.03125,0 1.59375,-1.28125 1.59375,-1.53125 0,-0.109375 -0.078125,-0.109375 -0.109375,-0.109375 -0.09375,0 -0.109375,0.046875 -0.140625,0.109375 -0.328125,1.078125 -1,1.3125 -1.3125,1.3125 -0.390625,0 -0.546875,-0.3125 -0.546875,-0.65625 0,-0.21875 0.046875,-0.4375 0.15625,-0.875 z m 0,0"
               style="stroke:none"
               inkscape:connector-curvature="0" />
          </symbol>
          <symbol
             id="textext-df0de10d-3"
             overflow="visible"
             style="overflow:visible">
            <path
               id="path17606"
               d=""
               style="stroke:none"
               inkscape:connector-curvature="0" />
          </symbol>
          <symbol
             id="textext-df0de10d-4"
             overflow="visible"
             style="overflow:visible">
            <path
               id="path17609"
               d="M 3.59375,-2.21875 C 3.59375,-2.984375 3.5,-3.546875 3.1875,-4.03125 2.96875,-4.34375 2.53125,-4.625 1.984375,-4.625 c -1.625,0 -1.625,1.90625 -1.625,2.40625 0,0.5 0,2.359375 1.625,2.359375 1.609375,0 1.609375,-1.859375 1.609375,-2.359375 z M 1.984375,-0.0625 c -0.328125,0 -0.75,-0.1875 -0.890625,-0.75 C 1,-1.21875 1,-1.796875 1,-2.3125 1,-2.828125 1,-3.359375 1.09375,-3.734375 1.25,-4.28125 1.6875,-4.4375 1.984375,-4.4375 c 0.375,0 0.734375,0.234375 0.859375,0.640625 0.109375,0.375 0.125,0.875 0.125,1.484375 0,0.515625 0,1.03125 -0.09375,1.46875 -0.140625,0.640625 -0.609375,0.78125 -0.890625,0.78125 z m 0,0"
               style="stroke:none"
               inkscape:connector-curvature="0" />
          </symbol>
          <symbol
             id="textext-df0de10d-5"
             overflow="visible"
             style="overflow:visible">
            <path
               id="path17612"
               d=""
               style="stroke:none"
               inkscape:connector-curvature="0" />
          </symbol>
          <symbol
             id="textext-df0de10d-6"
             overflow="visible"
             style="overflow:visible">
            <path
               id="path17615"
               d="m 3.296875,2.390625 c 0,-0.03125 0,-0.046875 -0.171875,-0.21875 C 1.890625,0.921875 1.5625,-0.96875 1.5625,-2.5 c 0,-1.734375 0.375,-3.46875 1.609375,-4.703125 0.125,-0.125 0.125,-0.140625 0.125,-0.171875 0,-0.078125 -0.03125,-0.109375 -0.09375,-0.109375 -0.109375,0 -1,0.6875 -1.59375,1.953125 -0.5,1.09375 -0.625,2.203125 -0.625,3.03125 0,0.78125 0.109375,1.984375 0.65625,3.125 C 2.25,1.84375 3.09375,2.5 3.203125,2.5 c 0.0625,0 0.09375,-0.03125 0.09375,-0.109375 z m 0,0"
               style="stroke:none"
               inkscape:connector-curvature="0" />
          </symbol>
          <symbol
             id="textext-df0de10d-7"
             overflow="visible"
             style="overflow:visible">
            <path
               id="path17618"
               d="m 2.875,-2.5 c 0,-0.765625 -0.109375,-1.96875 -0.65625,-3.109375 -0.59375,-1.21875 -1.453125,-1.875 -1.546875,-1.875 -0.0625,0 -0.109375,0.046875 -0.109375,0.109375 0,0.03125 0,0.046875 0.1875,0.234375 0.984375,0.984375 1.546875,2.5625 1.546875,4.640625 0,1.71875 -0.359375,3.46875 -1.59375,4.71875 C 0.5625,2.34375 0.5625,2.359375 0.5625,2.390625 0.5625,2.453125 0.609375,2.5 0.671875,2.5 0.765625,2.5 1.671875,1.8125 2.25,0.546875 2.765625,-0.546875 2.875,-1.65625 2.875,-2.5 Z m 0,0"
               style="stroke:none"
               inkscape:connector-curvature="0" />
          </symbol>
        </g>
      </defs>
      <g
         id="textext-df0de10d-8"
         style="fill:#0000ff">
        <g
           id="g17621"
           style="fill:#0000ff;fill-opacity:1">
          <use
             id="use17623"
             y="134.765"
             x="223.43201"
             xlink:href="#textext-df0de10d-1"
             style="fill:#0000ff"
             width="100%"
             height="100%" />
        </g>
        <g
           id="g17625"
           style="fill:#0000ff;fill-opacity:1">
          <use
             id="use17627"
             y="136.259"
             x="229.254"
             xlink:href="#textext-df0de10d-4"
             style="fill:#0000ff"
             width="100%"
             height="100%" />
        </g>
        <g
           id="g17629"
           style="fill:#0000ff;fill-opacity:1">
          <use
             id="use17631"
             y="134.765"
             x="233.72301"
             xlink:href="#textext-df0de10d-6"
             style="fill:#0000ff"
             width="100%"
             height="100%" />
        </g>
        <g
           id="g17633"
           style="fill:#0000ff;fill-opacity:1">
          <use
             id="use17635"
             y="134.765"
             x="237.59801"
             xlink:href="#textext-df0de10d-2"
             style="fill:#0000ff"
             width="100%"
             height="100%" />
        </g>
        <g
           id="g17637"
           style="fill:#0000ff;fill-opacity:1">
          <use
             id="use17639"
             y="134.765"
             x="243.29201"
             xlink:href="#textext-df0de10d-7"
             style="fill:#0000ff"
             width="100%"
             height="100%" />
        </g>
      </g>
    </g>
  </g>
  <g
     transform="translate(-26.151392,-303.34848)"
     id="g16299"
     inkscape:groupmode="layer"
     inkscape:label="p=1"
     style="display:none">
    <path
       inkscape:connector-curvature="0"
       id="path16301"
       d="m 608.2518,650.43054 c -22.66954,-1.94301 -47.51485,-7.54844 -75.50891,-17.03583 -21.15423,-7.16932 -34.81677,-12.65054 -82.43688,-33.07247 -20.35751,-8.73035 -41.59235,-17.71204 -47.18854,-19.95932 -41.926,-16.83641 -71.89885,-25.32947 -103.98433,-29.46484 l -8.57432,-1.10511 -132.20371,-0.17005 -132.203718,-0.17006 0,-47.95581 0,-47.95582 132.708788,-0.17002 c 145.53895,-0.18645 134.00846,0.0495 153.57989,-3.14344 32.37728,-5.2822 67.97102,-17.20766 125.09595,-41.91262 36.88848,-15.95325 43.40642,-18.72326 57.07361,-24.2553 35.54693,-14.38823 60.33278,-22.31548 85.15768,-27.23595 13.68959,-2.71339 31.84486,-4.82676 41.4649,-4.82676 l 228.5329,0.66011 0,296.37759 -225.09834,1.96745 -5.6821,-0.0694 c -3.12516,-0.0382 -7.95495,-0.26423 -10.73287,-0.50232 z"
       style="opacity:0.54000005;fill:#ff0000;fill-opacity:1;stroke:none;stroke-width:1.01015258;stroke-linecap:round;stroke-miterlimit:4;stroke-dasharray:none;stroke-dashoffset:0;stroke-opacity:1"
       sodipodi:nodetypes="csssscccccsssssscccscc" />
    <text
       xml:space="preserve"
       style="font-style:normal;font-weight:normal;font-size:80px;line-height:125%;font-family:sans-serif;letter-spacing:0px;word-spacing:0px;fill:#000000;fill-opacity:1;stroke:none;stroke-width:1px;stroke-linecap:butt;stroke-linejoin:miter;stroke-opacity:1"
       x="445"
       y="712.36218"
       id="text16303"
       sodipodi:linespacing="125%"><tspan
         sodipodi:role="line"
         id="tspan16305"
         x="445"
         y="712.36218" /></text>
    <g
       id="g18819"
       style="fill:#0000ff;stroke:#0000ff"
       transform="matrix(5,0,0,5,-657.14286,-159.28571)"
       ns0:preamble="/home/homer/misc/physcmds.tex"
       ns0:text="$T_1(x)$">
      <defs
         id="defs18821">
        <g
           id="g18823">
          <symbol
             id="textext-a01d7400-0"
             overflow="visible"
             style="overflow:visible">
            <path
               id="path18826"
               d=""
               style="stroke:none"
               inkscape:connector-curvature="0" />
          </symbol>
          <symbol
             id="textext-a01d7400-1"
             overflow="visible"
             style="overflow:visible">
            <path
               id="path18829"
               d="m 4.25,-6.046875 c 0.078125,-0.28125 0.109375,-0.34375 0.234375,-0.375 0.09375,-0.015625 0.421875,-0.015625 0.625,-0.015625 1.015625,0 1.453125,0.03125 1.453125,0.8125 0,0.15625 -0.03125,0.546875 -0.078125,0.796875 0,0.046875 -0.03125,0.15625 -0.03125,0.1875 0,0.0625 0.03125,0.140625 0.125,0.140625 0.109375,0 0.125,-0.078125 0.15625,-0.234375 L 7,-6.46875 C 7.015625,-6.515625 7.015625,-6.609375 7.015625,-6.640625 7.015625,-6.75 6.921875,-6.75 6.75,-6.75 l -5.53125,0 c -0.234375,0 -0.25,0.015625 -0.328125,0.203125 l -0.59375,1.75 c 0,0.015625 -0.0625,0.15625 -0.0625,0.1875 0,0.046875 0.0625,0.109375 0.125,0.109375 0.09375,0 0.109375,-0.0625 0.171875,-0.21875 C 1.0625,-6.265625 1.328125,-6.4375 2.796875,-6.4375 l 0.390625,0 c 0.28125,0 0.28125,0.03125 0.28125,0.125 0,0.046875 -0.03125,0.171875 -0.046875,0.203125 L 2.09375,-0.78125 C 2,-0.421875 1.96875,-0.3125 0.90625,-0.3125 c -0.359375,0 -0.421875,0 -0.421875,0.1875 C 0.484375,0 0.59375,0 0.65625,0 c 0.265625,0 0.546875,-0.015625 0.8125,-0.015625 0.28125,0 0.578125,-0.015625 0.859375,-0.015625 0.28125,0 0.546875,0.015625 0.828125,0.015625 C 3.4375,-0.015625 3.734375,0 4.015625,0 c 0.09375,0 0.21875,0 0.21875,-0.203125 0,-0.109375 -0.078125,-0.109375 -0.34375,-0.109375 -0.234375,0 -0.375,0 -0.625,-0.015625 -0.296875,-0.03125 -0.375,-0.0625 -0.375,-0.21875 0,-0.015625 0,-0.0625 0.046875,-0.203125 z m 0,0"
               style="stroke:none"
               inkscape:connector-curvature="0" />
          </symbol>
          <symbol
             id="textext-a01d7400-2"
             overflow="visible"
             style="overflow:visible">
            <path
               id="path18832"
               d="M 3.328125,-3.015625 C 3.390625,-3.265625 3.625,-4.1875 4.3125,-4.1875 c 0.046875,0 0.296875,0 0.5,0.125 C 4.53125,-4 4.34375,-3.765625 4.34375,-3.515625 c 0,0.15625 0.109375,0.34375 0.375,0.34375 0.21875,0 0.53125,-0.171875 0.53125,-0.578125 0,-0.515625 -0.578125,-0.65625 -0.921875,-0.65625 -0.578125,0 -0.921875,0.53125 -1.046875,0.75 -0.25,-0.65625 -0.78125,-0.75 -1.078125,-0.75 -1.03125,0 -1.609375,1.28125 -1.609375,1.53125 0,0.109375 0.109375,0.109375 0.125,0.109375 0.078125,0 0.109375,-0.03125 0.125,-0.109375 0.34375,-1.0625 1,-1.3125 1.34375,-1.3125 0.1875,0 0.53125,0.09375 0.53125,0.671875 0,0.3125 -0.171875,0.96875 -0.53125,2.375 -0.15625,0.609375 -0.515625,1.03125 -0.953125,1.03125 -0.0625,0 -0.28125,0 -0.5,-0.125 0.25,-0.0625 0.46875,-0.265625 0.46875,-0.546875 0,-0.265625 -0.21875,-0.34375 -0.359375,-0.34375 -0.3125,0 -0.546875,0.25 -0.546875,0.578125 0,0.453125 0.484375,0.65625 0.921875,0.65625 0.671875,0 1.03125,-0.703125 1.046875,-0.75 0.125,0.359375 0.484375,0.75 1.078125,0.75 1.03125,0 1.59375,-1.28125 1.59375,-1.53125 0,-0.109375 -0.078125,-0.109375 -0.109375,-0.109375 -0.09375,0 -0.109375,0.046875 -0.140625,0.109375 -0.328125,1.078125 -1,1.3125 -1.3125,1.3125 -0.390625,0 -0.546875,-0.3125 -0.546875,-0.65625 0,-0.21875 0.046875,-0.4375 0.15625,-0.875 z m 0,0"
               style="stroke:none"
               inkscape:connector-curvature="0" />
          </symbol>
          <symbol
             id="textext-a01d7400-3"
             overflow="visible"
             style="overflow:visible">
            <path
               id="path18835"
               d=""
               style="stroke:none"
               inkscape:connector-curvature="0" />
          </symbol>
          <symbol
             id="textext-a01d7400-4"
             overflow="visible"
             style="overflow:visible">
            <path
               id="path18838"
               d="m 2.328125,-4.4375 c 0,-0.1875 0,-0.1875 -0.203125,-0.1875 -0.453125,0.4375 -1.078125,0.4375 -1.359375,0.4375 l 0,0.25 c 0.15625,0 0.625,0 1,-0.1875 l 0,3.546875 c 0,0.234375 0,0.328125 -0.6875,0.328125 l -0.265625,0 0,0.25 c 0.125,0 0.984375,-0.03125 1.234375,-0.03125 0.21875,0 1.09375,0.03125 1.25,0.03125 l 0,-0.25 -0.265625,0 c -0.703125,0 -0.703125,-0.09375 -0.703125,-0.328125 z m 0,0"
               style="stroke:none"
               inkscape:connector-curvature="0" />
          </symbol>
          <symbol
             id="textext-a01d7400-5"
             overflow="visible"
             style="overflow:visible">
            <path
               id="path18841"
               d=""
               style="stroke:none"
               inkscape:connector-curvature="0" />
          </symbol>
          <symbol
             id="textext-a01d7400-6"
             overflow="visible"
             style="overflow:visible">
            <path
               id="path18844"
               d="m 3.296875,2.390625 c 0,-0.03125 0,-0.046875 -0.171875,-0.21875 C 1.890625,0.921875 1.5625,-0.96875 1.5625,-2.5 c 0,-1.734375 0.375,-3.46875 1.609375,-4.703125 0.125,-0.125 0.125,-0.140625 0.125,-0.171875 0,-0.078125 -0.03125,-0.109375 -0.09375,-0.109375 -0.109375,0 -1,0.6875 -1.59375,1.953125 -0.5,1.09375 -0.625,2.203125 -0.625,3.03125 0,0.78125 0.109375,1.984375 0.65625,3.125 C 2.25,1.84375 3.09375,2.5 3.203125,2.5 c 0.0625,0 0.09375,-0.03125 0.09375,-0.109375 z m 0,0"
               style="stroke:none"
               inkscape:connector-curvature="0" />
          </symbol>
          <symbol
             id="textext-a01d7400-7"
             overflow="visible"
             style="overflow:visible">
            <path
               id="path18847"
               d="m 2.875,-2.5 c 0,-0.765625 -0.109375,-1.96875 -0.65625,-3.109375 -0.59375,-1.21875 -1.453125,-1.875 -1.546875,-1.875 -0.0625,0 -0.109375,0.046875 -0.109375,0.109375 0,0.03125 0,0.046875 0.1875,0.234375 0.984375,0.984375 1.546875,2.5625 1.546875,4.640625 0,1.71875 -0.359375,3.46875 -1.59375,4.71875 C 0.5625,2.34375 0.5625,2.359375 0.5625,2.390625 0.5625,2.453125 0.609375,2.5 0.671875,2.5 0.765625,2.5 1.671875,1.8125 2.25,0.546875 2.765625,-0.546875 2.875,-1.65625 2.875,-2.5 Z m 0,0"
               style="stroke:none"
               inkscape:connector-curvature="0" />
          </symbol>
        </g>
      </defs>
      <g
         id="textext-a01d7400-8"
         style="fill:#0000ff">
        <g
           id="g18850"
           style="fill:#0000ff;fill-opacity:1">
          <use
             id="use18852"
             y="134.765"
             x="223.43201"
             xlink:href="#textext-a01d7400-1"
             style="fill:#0000ff"
             width="100%"
             height="100%" />
        </g>
        <g
           id="g18854"
           style="fill:#0000ff;fill-opacity:1">
          <use
             id="use18856"
             y="136.259"
             x="229.254"
             xlink:href="#textext-a01d7400-4"
             style="fill:#0000ff"
             width="100%"
             height="100%" />
        </g>
        <g
           id="g18858"
           style="fill:#0000ff;fill-opacity:1">
          <use
             id="use18860"
             y="134.765"
             x="233.72301"
             xlink:href="#textext-a01d7400-6"
             style="fill:#0000ff"
             width="100%"
             height="100%" />
        </g>
        <g
           id="g18862"
           style="fill:#0000ff;fill-opacity:1">
          <use
             id="use18864"
             y="134.765"
             x="237.59801"
             xlink:href="#textext-a01d7400-2"
             style="fill:#0000ff"
             width="100%"
             height="100%" />
        </g>
        <g
           id="g18866"
           style="fill:#0000ff;fill-opacity:1">
          <use
             id="use18868"
             y="134.765"
             x="243.29201"
             xlink:href="#textext-a01d7400-7"
             style="fill:#0000ff"
             width="100%"
             height="100%" />
        </g>
      </g>
    </g>
  </g>
  <g
     style="display:inline"
     transform="translate(-26.151392,-303.34848)"
     id="layer1"
     inkscape:groupmode="layer"
     inkscape:label="Labels">
    <path
       style="fill:#0000ff;fill-rule:evenodd;stroke:#0000ff;stroke-width:2;stroke-linecap:butt;stroke-linejoin:miter;stroke-miterlimit:4;stroke-dasharray:none;stroke-opacity:1;marker-start:url(#marker12158);marker-end:url(#marker12114)"
       d="m 620.77268,322.23658 -340.94747,0"
       id="path4767"
       inkscape:path-effect="#path-effect4769"
       inkscape:original-d="m 620.77268,322.23658 c -269.54145,214.86064 -224.8779,0 -340.94747,0"
       inkscape:connector-curvature="0"
       sodipodi:nodetypes="cc" />
    <g
       id="g4820"
       ns0:preamble="/home/homer/misc/physcmds.tex"
       ns0:text="$L$"
       transform="matrix(5,0,0,5,-682.14286,-309.28571)"
       style="fill:#0000ff;stroke:#0000ff">
      <defs
         id="defs4822">
        <g
           id="g4824">
          <symbol
             id="textext-94116303-0"
             overflow="visible"
             style="overflow:visible">
            <path
               id="path4827"
               d=""
               style="stroke:none"
               inkscape:connector-curvature="0" />
          </symbol>
          <symbol
             id="textext-94116303-1"
             overflow="visible"
             style="overflow:visible">
            <path
               id="path4830"
               d="M 3.734375,-6.03125 C 3.8125,-6.390625 3.84375,-6.5 4.78125,-6.5 c 0.296875,0 0.375,0 0.375,-0.1875 0,-0.125 -0.109375,-0.125 -0.15625,-0.125 -0.328125,0 -1.140625,0.03125 -1.46875,0.03125 -0.296875,0 -1.03125,-0.03125 -1.328125,-0.03125 -0.0625,0 -0.1875,0 -0.1875,0.203125 0,0.109375 0.09375,0.109375 0.28125,0.109375 0.015625,0 0.203125,0 0.375,0.015625 0.171875,0.03125 0.265625,0.03125 0.265625,0.171875 0,0.03125 0,0.0625 -0.03125,0.1875 L 1.5625,-0.78125 c -0.09375,0.390625 -0.109375,0.46875 -0.90625,0.46875 -0.171875,0 -0.265625,0 -0.265625,0.203125 C 0.390625,0 0.484375,0 0.65625,0 l 4.625,0 C 5.515625,0 5.515625,0 5.578125,-0.171875 L 6.375,-2.328125 c 0.03125,-0.109375 0.03125,-0.125 0.03125,-0.140625 0,-0.03125 -0.03125,-0.109375 -0.109375,-0.109375 -0.09375,0 -0.109375,0.0625 -0.171875,0.21875 -0.34375,0.90625 -0.78125,2.046875 -2.5,2.046875 l -0.9375,0 c -0.140625,0 -0.171875,0 -0.21875,0 -0.109375,-0.015625 -0.140625,-0.03125 -0.140625,-0.109375 0,-0.03125 0,-0.046875 0.046875,-0.21875 z m 0,0"
               style="stroke:none"
               inkscape:connector-curvature="0" />
          </symbol>
        </g>
      </defs>
      <g
         id="textext-94116303-2"
         style="fill:#0000ff;stroke:#0000ff">
        <g
           id="g4833"
           style="fill:#0000ff;fill-opacity:1;stroke:#0000ff">
          <use
             id="use4835"
             y="134.765"
             x="223.43201"
             xlink:href="#textext-94116303-1"
             width="100%"
             height="100%"
             style="fill:#0000ff;stroke:#0000ff" />
        </g>
      </g>
    </g>
    <text
       xml:space="preserve"
       style="font-style:normal;font-weight:normal;font-size:80px;line-height:125%;font-family:sans-serif;letter-spacing:0px;word-spacing:0px;fill:#000000;fill-opacity:1;stroke:none;stroke-width:1px;stroke-linecap:butt;stroke-linejoin:miter;stroke-opacity:1"
       x="445"
       y="712.36218"
       id="text4875"
       sodipodi:linespacing="125%"><tspan
         sodipodi:role="line"
         id="tspan4877"
         x="445"
         y="712.36218" /></text>
    <path
       sodipodi:nodetypes="cc"
       inkscape:connector-curvature="0"
       inkscape:original-d="m 125,542.83368 0,-82.53257"
       inkscape:path-effect="#path-effect5759"
       id="path5757"
       d="m 125,542.83368 0,-82.53257"
       style="fill:#0000ff;fill-rule:evenodd;stroke:#0000ff;stroke-width:4;stroke-linecap:butt;stroke-linejoin:miter;stroke-miterlimit:4;stroke-dasharray:none;stroke-opacity:1;marker-start:url(#Arrow2Mstart);marker-end:url(#marker5761)" />
    <path
       style="fill:#0000ff;fill-rule:evenodd;stroke:#0000ff;stroke-width:4;stroke-linecap:butt;stroke-linejoin:miter;stroke-miterlimit:4;stroke-dasharray:none;stroke-opacity:1;marker-start:url(#marker6066);marker-end:url(#marker6076)"
       d="m 745,643.83088 0,-284.52697"
       id="path6030"
       inkscape:path-effect="#path-effect6032"
       inkscape:original-d="m 745,643.83088 0,-284.52697"
       inkscape:connector-curvature="0"
       sodipodi:nodetypes="cc" />
    <path
       style="fill:#000000;fill-rule:evenodd;stroke:#000000;stroke-width:3;stroke-linecap:butt;stroke-linejoin:miter;stroke-miterlimit:4;stroke-dasharray:none;stroke-opacity:1;marker-end:url(#marker8771)"
       d="m 40,727.83368 0,-82.53257"
       id="path8757"
       inkscape:path-effect="#path-effect8759"
       inkscape:original-d="m 40,727.83368 0,-82.53257"
       inkscape:connector-curvature="0"
       sodipodi:nodetypes="cc" />
    <path
       sodipodi:nodetypes="cc"
       inkscape:connector-curvature="0"
       inkscape:original-d="m 38.733715,726.5674 82.532575,0"
       inkscape:path-effect="#path-effect9021"
       id="path9019"
       d="m 38.733715,726.5674 82.532575,0"
       style="fill:#000000;fill-rule:evenodd;stroke:#000000;stroke-width:3;stroke-linecap:butt;stroke-linejoin:miter;stroke-miterlimit:4;stroke-dasharray:none;stroke-opacity:1;marker-end:url(#marker9023)" />
    <g
       ns0:text="$x$"
       ns0:preamble="/home/homer/misc/physcmds.tex"
       transform="matrix(3.767855,0,0,3.767855,-718.42499,209.11712)"
       style="fill:#0000ff;stroke:#0000ff"
       id="g9386">
      <defs
         id="defs9388">
        <g
           id="g9390">
          <symbol
             overflow="visible"
             id="textext-a96a7a04-0"
             style="overflow:visible">
            <path
               style="stroke:none"
               d=""
               id="path9393"
               inkscape:connector-curvature="0" />
          </symbol>
          <symbol
             overflow="visible"
             id="textext-a96a7a04-1"
             style="overflow:visible">
            <path
               style="stroke:none"
               d="M 3.328125,-3.015625 C 3.390625,-3.265625 3.625,-4.1875 4.3125,-4.1875 c 0.046875,0 0.296875,0 0.5,0.125 C 4.53125,-4 4.34375,-3.765625 4.34375,-3.515625 c 0,0.15625 0.109375,0.34375 0.375,0.34375 0.21875,0 0.53125,-0.171875 0.53125,-0.578125 0,-0.515625 -0.578125,-0.65625 -0.921875,-0.65625 -0.578125,0 -0.921875,0.53125 -1.046875,0.75 -0.25,-0.65625 -0.78125,-0.75 -1.078125,-0.75 -1.03125,0 -1.609375,1.28125 -1.609375,1.53125 0,0.109375 0.109375,0.109375 0.125,0.109375 0.078125,0 0.109375,-0.03125 0.125,-0.109375 0.34375,-1.0625 1,-1.3125 1.34375,-1.3125 0.1875,0 0.53125,0.09375 0.53125,0.671875 0,0.3125 -0.171875,0.96875 -0.53125,2.375 -0.15625,0.609375 -0.515625,1.03125 -0.953125,1.03125 -0.0625,0 -0.28125,0 -0.5,-0.125 0.25,-0.0625 0.46875,-0.265625 0.46875,-0.546875 0,-0.265625 -0.21875,-0.34375 -0.359375,-0.34375 -0.3125,0 -0.546875,0.25 -0.546875,0.578125 0,0.453125 0.484375,0.65625 0.921875,0.65625 0.671875,0 1.03125,-0.703125 1.046875,-0.75 0.125,0.359375 0.484375,0.75 1.078125,0.75 1.03125,0 1.59375,-1.28125 1.59375,-1.53125 0,-0.109375 -0.078125,-0.109375 -0.109375,-0.109375 -0.09375,0 -0.109375,0.046875 -0.140625,0.109375 -0.328125,1.078125 -1,1.3125 -1.3125,1.3125 -0.390625,0 -0.546875,-0.3125 -0.546875,-0.65625 0,-0.21875 0.046875,-0.4375 0.15625,-0.875 z m 0,0"
               id="path9396"
               inkscape:connector-curvature="0" />
          </symbol>
        </g>
      </defs>
      <g
         id="textext-a96a7a04-2">
        <g
           style="fill:#000000;fill-opacity:1"
           id="g9399">
          <use
             xlink:href="#textext-a96a7a04-1"
             x="223.43201"
             y="134.765"
             id="use9401"
             width="100%"
             height="100%" />
        </g>
      </g>
    </g>
    <g
       ns0:text="$y$"
       ns0:preamble="/home/homer/misc/physcmds.tex"
       transform="matrix(3.767855,0,0,3.767855,-788.42499,144.11712)"
       style="fill:#0000ff;stroke:#0000ff"
       id="g9890">
      <defs
         id="defs9892">
        <g
           id="g9894">
          <symbol
             style="overflow:visible"
             overflow="visible"
             id="textext-f522ce1b-0">
            <path
               inkscape:connector-curvature="0"
               style="stroke:none"
               d=""
               id="path9897" />
          </symbol>
          <symbol
             style="overflow:visible"
             overflow="visible"
             id="textext-f522ce1b-1">
            <path
               inkscape:connector-curvature="0"
               style="stroke:none"
               d="m 4.84375,-3.796875 c 0.046875,-0.140625 0.046875,-0.15625 0.046875,-0.234375 0,-0.171875 -0.140625,-0.265625 -0.296875,-0.265625 -0.09375,0 -0.25,0.0625 -0.34375,0.203125 -0.015625,0.0625 -0.109375,0.359375 -0.140625,0.546875 -0.078125,0.25 -0.140625,0.53125 -0.203125,0.796875 l -0.453125,1.796875 c -0.03125,0.140625 -0.46875,0.84375 -1.125,0.84375 -0.5,0 -0.609375,-0.4375 -0.609375,-0.8125 C 1.71875,-1.375 1.890625,-2 2.21875,-2.875 2.375,-3.28125 2.421875,-3.390625 2.421875,-3.59375 c 0,-0.4375 -0.3125,-0.8125 -0.8125,-0.8125 -0.953125,0 -1.3125,1.453125 -1.3125,1.53125 0,0.109375 0.09375,0.109375 0.109375,0.109375 0.109375,0 0.109375,-0.03125 0.15625,-0.1875 0.28125,-0.9375 0.671875,-1.234375 1.015625,-1.234375 0.078125,0 0.25,0 0.25,0.3125 0,0.25 -0.109375,0.515625 -0.171875,0.703125 -0.40625,1.0625 -0.578125,1.625 -0.578125,2.09375 0,0.890625 0.625,1.1875 1.21875,1.1875 0.390625,0 0.71875,-0.171875 1,-0.453125 -0.125,0.515625 -0.25,1.015625 -0.640625,1.546875 -0.265625,0.328125 -0.640625,0.625 -1.09375,0.625 -0.140625,0 -0.59375,-0.03125 -0.765625,-0.421875 0.15625,0 0.296875,0 0.421875,-0.125 C 1.328125,1.203125 1.421875,1.0625 1.421875,0.875 1.421875,0.5625 1.15625,0.53125 1.0625,0.53125 0.828125,0.53125 0.5,0.6875 0.5,1.171875 c 0,0.5 0.4375,0.875 1.0625,0.875 1.015625,0 2.046875,-0.90625 2.328125,-2.03125 z m 0,0"
               id="path9900" />
          </symbol>
        </g>
      </defs>
      <g
         id="textext-f522ce1b-2">
        <g
           style="fill:#000000;fill-opacity:1"
           id="g9903">
          <use
             height="100%"
             width="100%"
             xlink:href="#textext-f522ce1b-1"
             x="223.43201"
             y="134.765"
             id="use9905" />
        </g>
      </g>
    </g>
    <path
       style="fill:#0000ff;fill-rule:evenodd;stroke:#0000ff;stroke-width:4;stroke-linecap:butt;stroke-linejoin:miter;stroke-miterlimit:4;stroke-dasharray:none;stroke-opacity:1;marker-start:url(#marker10418);marker-end:url(#marker10428)"
       d="m 440,591.02189 0,-178.24888"
       id="path10382"
       inkscape:path-effect="#path-effect10384"
       inkscape:original-d="m 440,591.02189 0,-178.24888"
       inkscape:connector-curvature="0"
       sodipodi:nodetypes="cc" />
    <path
       style="fill:#0000ff;fill-rule:evenodd;stroke:#0000ff;stroke-width:1;stroke-linecap:butt;stroke-linejoin:miter;stroke-miterlimit:4;stroke-dasharray:3, 3;stroke-dashoffset:0;stroke-opacity:1"
       d="m 275.39429,303.34848 0,399.0137"
       id="path12100"
       inkscape:path-effect="#path-effect12102"
       inkscape:original-d="m 275.39429,303.34848 0,399.0137"
       inkscape:connector-curvature="0"
       sodipodi:nodetypes="cc" />
    <path
       sodipodi:nodetypes="cc"
       inkscape:connector-curvature="0"
       inkscape:original-d="m 625.39429,303.34848 0,399.0137"
       inkscape:path-effect="#path-effect12106"
       id="path12104"
       d="m 625.39429,303.34848 0,399.0137"
       style="fill:#0000ff;fill-rule:evenodd;stroke:#0000ff;stroke-width:1;stroke-linecap:butt;stroke-linejoin:miter;stroke-miterlimit:4;stroke-dasharray:3, 3;stroke-dashoffset:0;stroke-opacity:1" />
    <g
       ns0:text="$x=-\\frac{L}{2}$"
       ns0:preamble="/home/homer/misc/physcmds.tex"
       transform="matrix(3.767855,0,0,3.767855,-628.42499,219.11712)"
       style="fill:#0000ff;stroke:#0000ff"
       id="g13135">
      <defs
         id="defs13137">
        <g
           id="g13139">
          <symbol
             style="overflow:visible"
             overflow="visible"
             id="textext-af71ef44-0">
            <path
               inkscape:connector-curvature="0"
               style="stroke:none"
               d=""
               id="path13142" />
          </symbol>
          <symbol
             style="overflow:visible"
             overflow="visible"
             id="textext-af71ef44-1">
            <path
               inkscape:connector-curvature="0"
               style="stroke:none"
               d="M 3.328125,-3.015625 C 3.390625,-3.265625 3.625,-4.1875 4.3125,-4.1875 c 0.046875,0 0.296875,0 0.5,0.125 C 4.53125,-4 4.34375,-3.765625 4.34375,-3.515625 c 0,0.15625 0.109375,0.34375 0.375,0.34375 0.21875,0 0.53125,-0.171875 0.53125,-0.578125 0,-0.515625 -0.578125,-0.65625 -0.921875,-0.65625 -0.578125,0 -0.921875,0.53125 -1.046875,0.75 -0.25,-0.65625 -0.78125,-0.75 -1.078125,-0.75 -1.03125,0 -1.609375,1.28125 -1.609375,1.53125 0,0.109375 0.109375,0.109375 0.125,0.109375 0.078125,0 0.109375,-0.03125 0.125,-0.109375 0.34375,-1.0625 1,-1.3125 1.34375,-1.3125 0.1875,0 0.53125,0.09375 0.53125,0.671875 0,0.3125 -0.171875,0.96875 -0.53125,2.375 -0.15625,0.609375 -0.515625,1.03125 -0.953125,1.03125 -0.0625,0 -0.28125,0 -0.5,-0.125 0.25,-0.0625 0.46875,-0.265625 0.46875,-0.546875 0,-0.265625 -0.21875,-0.34375 -0.359375,-0.34375 -0.3125,0 -0.546875,0.25 -0.546875,0.578125 0,0.453125 0.484375,0.65625 0.921875,0.65625 0.671875,0 1.03125,-0.703125 1.046875,-0.75 0.125,0.359375 0.484375,0.75 1.078125,0.75 1.03125,0 1.59375,-1.28125 1.59375,-1.53125 0,-0.109375 -0.078125,-0.109375 -0.109375,-0.109375 -0.09375,0 -0.109375,0.046875 -0.140625,0.109375 -0.328125,1.078125 -1,1.3125 -1.3125,1.3125 -0.390625,0 -0.546875,-0.3125 -0.546875,-0.65625 0,-0.21875 0.046875,-0.4375 0.15625,-0.875 z m 0,0"
               id="path13145" />
          </symbol>
          <symbol
             style="overflow:visible"
             overflow="visible"
             id="textext-af71ef44-2">
            <path
               inkscape:connector-curvature="0"
               style="stroke:none"
               d=""
               id="path13148" />
          </symbol>
          <symbol
             style="overflow:visible"
             overflow="visible"
             id="textext-af71ef44-3">
            <path
               inkscape:connector-curvature="0"
               style="stroke:none"
               d="m 6.84375,-3.265625 c 0.15625,0 0.34375,0 0.34375,-0.1875 C 7.1875,-3.65625 7,-3.65625 6.859375,-3.65625 l -5.96875,0 c -0.140625,0 -0.328125,0 -0.328125,0.203125 0,0.1875 0.1875,0.1875 0.328125,0.1875 z m 0.015625,1.9375 c 0.140625,0 0.328125,0 0.328125,-0.203125 0,-0.1875 -0.1875,-0.1875 -0.34375,-0.1875 l -5.953125,0 c -0.140625,0 -0.328125,0 -0.328125,0.1875 0,0.203125 0.1875,0.203125 0.328125,0.203125 z m 0,0"
               id="path13151" />
          </symbol>
          <symbol
             style="overflow:visible"
             overflow="visible"
             id="textext-af71ef44-4">
            <path
               inkscape:connector-curvature="0"
               style="stroke:none"
               d=""
               id="path13154" />
          </symbol>
          <symbol
             style="overflow:visible"
             overflow="visible"
             id="textext-af71ef44-5">
            <path
               inkscape:connector-curvature="0"
               style="stroke:none"
               d="m 6.5625,-2.296875 c 0.171875,0 0.359375,0 0.359375,-0.203125 0,-0.1875 -0.1875,-0.1875 -0.359375,-0.1875 l -5.390625,0 c -0.171875,0 -0.34375,0 -0.34375,0.1875 0,0.203125 0.171875,0.203125 0.34375,0.203125 z m 0,0"
               id="path13157" />
          </symbol>
          <symbol
             style="overflow:visible"
             overflow="visible"
             id="textext-af71ef44-6">
            <path
               inkscape:connector-curvature="0"
               style="stroke:none"
               d=""
               id="path13160" />
          </symbol>
          <symbol
             style="overflow:visible"
             overflow="visible"
             id="textext-af71ef44-7">
            <path
               inkscape:connector-curvature="0"
               style="stroke:none"
               d="m 2.875,-4.1875 c 0.0625,-0.25 0.078125,-0.328125 0.71875,-0.328125 0.21875,0 0.28125,0 0.28125,-0.140625 0,-0.015625 0,-0.109375 -0.109375,-0.109375 -0.15625,0 -0.34375,0.015625 -0.515625,0.03125 -0.171875,0 -0.390625,0 -0.5625,0 -0.140625,0 -0.328125,0 -0.484375,0 -0.140625,0 -0.3125,-0.03125 -0.453125,-0.03125 -0.03125,0 -0.140625,0 -0.140625,0.15625 0,0.09375 0.078125,0.09375 0.21875,0.09375 0.015625,0 0.140625,0 0.265625,0.015625 0.15625,0.015625 0.171875,0.03125 0.171875,0.109375 0,0 0,0.046875 -0.03125,0.140625 l -0.9375,3.703125 C 1.234375,-0.3125 1.21875,-0.25 0.6875,-0.25 c -0.109375,0 -0.203125,0 -0.203125,0.140625 C 0.484375,0 0.5625,0 0.6875,0 l 3.5,0 c 0.1875,0 0.1875,0 0.25,-0.140625 0.0625,-0.1875 0.59375,-1.53125 0.59375,-1.59375 0,-0.015625 -0.015625,-0.09375 -0.125,-0.09375 -0.078125,0 -0.09375,0.03125 -0.140625,0.140625 C 4.5,-1.03125 4.1875,-0.25 2.921875,-0.25 l -0.796875,0 c -0.203125,0 -0.21875,-0.015625 -0.21875,-0.078125 0,0 0,-0.03125 0.03125,-0.140625 z m 0,0"
               id="path13163" />
          </symbol>
          <symbol
             style="overflow:visible"
             overflow="visible"
             id="textext-af71ef44-8">
            <path
               inkscape:connector-curvature="0"
               style="stroke:none"
               d=""
               id="path13166" />
          </symbol>
          <symbol
             style="overflow:visible"
             overflow="visible"
             id="textext-af71ef44-9">
            <path
               inkscape:connector-curvature="0"
               style="stroke:none"
               d="m 3.515625,-1.265625 -0.234375,0 c -0.015625,0.15625 -0.09375,0.5625 -0.1875,0.625 -0.046875,0.046875 -0.578125,0.046875 -0.6875,0.046875 l -1.28125,0 c 0.734375,-0.640625 0.984375,-0.84375 1.390625,-1.171875 0.515625,-0.40625 1,-0.84375 1,-1.5 0,-0.84375 -0.734375,-1.359375 -1.625,-1.359375 -0.859375,0 -1.453125,0.609375 -1.453125,1.25 0,0.34375 0.296875,0.390625 0.375,0.390625 0.15625,0 0.359375,-0.125 0.359375,-0.375 0,-0.125 -0.046875,-0.375 -0.40625,-0.375 C 0.984375,-4.21875 1.453125,-4.375 1.78125,-4.375 c 0.703125,0 1.0625,0.546875 1.0625,1.109375 0,0.609375 -0.4375,1.078125 -0.65625,1.328125 L 0.515625,-0.265625 C 0.4375,-0.203125 0.4375,-0.1875 0.4375,0 l 2.875,0 z m 0,0"
               id="path13169" />
          </symbol>
        </g>
      </defs>
      <g
         id="textext-af71ef44-10">
        <g
           style="fill:#000000;fill-opacity:1"
           id="g13172">
          <use
             height="100%"
             width="100%"
             xlink:href="#textext-af71ef44-1"
             x="223.43201"
             y="134.765"
             id="use13174" />
        </g>
        <g
           style="fill:#000000;fill-opacity:1"
           id="g13176">
          <use
             height="100%"
             width="100%"
             xlink:href="#textext-af71ef44-3"
             x="231.89301"
             y="134.765"
             id="use13178" />
        </g>
        <g
           style="fill:#000000;fill-opacity:1"
           id="g13180">
          <use
             height="100%"
             width="100%"
             xlink:href="#textext-af71ef44-5"
             x="242.409"
             y="134.765"
             id="use13182" />
        </g>
        <g
           style="fill:#000000;fill-opacity:1"
           id="g13184">
          <use
             height="100%"
             width="100%"
             xlink:href="#textext-af71ef44-7"
             x="251.354"
             y="130.842"
             id="use13186" />
        </g>
        <path
           inkscape:connector-curvature="0"
           style="fill:none;stroke:#000000;stroke-width:0.398;stroke-linecap:butt;stroke-linejoin:miter;stroke-miterlimit:10;stroke-opacity:1"
           d="m 0.00146875,5.625e-4 5.46484325,0"
           transform="matrix(1,0,0,-1,251.354,132.274)"
           id="path13188" />
        <g
           style="fill:#000000;fill-opacity:1"
           id="g13190">
          <use
             height="100%"
             width="100%"
             xlink:href="#textext-af71ef44-9"
             x="252.101"
             y="138.2"
             id="use13192" />
        </g>
      </g>
    </g>
    <g
       id="g14136"
       style="fill:#0000ff;stroke:#0000ff"
       transform="matrix(3.767855,0,0,3.767855,-278.42499,219.11712)"
       ns0:preamble="/home/homer/misc/physcmds.tex"
       ns0:text="$x=+\\frac{L}{2}$">
      <defs
         id="defs14138">
        <g
           id="g14140">
          <symbol
             style="overflow:visible"
             id="textext-984c4736-0"
             overflow="visible">
            <path
               inkscape:connector-curvature="0"
               id="path14143"
               d=""
               style="stroke:none" />
          </symbol>
          <symbol
             style="overflow:visible"
             id="textext-984c4736-1"
             overflow="visible">
            <path
               inkscape:connector-curvature="0"
               id="path14146"
               d="M 3.328125,-3.015625 C 3.390625,-3.265625 3.625,-4.1875 4.3125,-4.1875 c 0.046875,0 0.296875,0 0.5,0.125 C 4.53125,-4 4.34375,-3.765625 4.34375,-3.515625 c 0,0.15625 0.109375,0.34375 0.375,0.34375 0.21875,0 0.53125,-0.171875 0.53125,-0.578125 0,-0.515625 -0.578125,-0.65625 -0.921875,-0.65625 -0.578125,0 -0.921875,0.53125 -1.046875,0.75 -0.25,-0.65625 -0.78125,-0.75 -1.078125,-0.75 -1.03125,0 -1.609375,1.28125 -1.609375,1.53125 0,0.109375 0.109375,0.109375 0.125,0.109375 0.078125,0 0.109375,-0.03125 0.125,-0.109375 0.34375,-1.0625 1,-1.3125 1.34375,-1.3125 0.1875,0 0.53125,0.09375 0.53125,0.671875 0,0.3125 -0.171875,0.96875 -0.53125,2.375 -0.15625,0.609375 -0.515625,1.03125 -0.953125,1.03125 -0.0625,0 -0.28125,0 -0.5,-0.125 0.25,-0.0625 0.46875,-0.265625 0.46875,-0.546875 0,-0.265625 -0.21875,-0.34375 -0.359375,-0.34375 -0.3125,0 -0.546875,0.25 -0.546875,0.578125 0,0.453125 0.484375,0.65625 0.921875,0.65625 0.671875,0 1.03125,-0.703125 1.046875,-0.75 0.125,0.359375 0.484375,0.75 1.078125,0.75 1.03125,0 1.59375,-1.28125 1.59375,-1.53125 0,-0.109375 -0.078125,-0.109375 -0.109375,-0.109375 -0.09375,0 -0.109375,0.046875 -0.140625,0.109375 -0.328125,1.078125 -1,1.3125 -1.3125,1.3125 -0.390625,0 -0.546875,-0.3125 -0.546875,-0.65625 0,-0.21875 0.046875,-0.4375 0.15625,-0.875 z m 0,0"
               style="stroke:none" />
          </symbol>
          <symbol
             style="overflow:visible"
             id="textext-984c4736-2"
             overflow="visible">
            <path
               inkscape:connector-curvature="0"
               id="path14149"
               d=""
               style="stroke:none" />
          </symbol>
          <symbol
             style="overflow:visible"
             id="textext-984c4736-3"
             overflow="visible">
            <path
               inkscape:connector-curvature="0"
               id="path14152"
               d="m 6.84375,-3.265625 c 0.15625,0 0.34375,0 0.34375,-0.1875 C 7.1875,-3.65625 7,-3.65625 6.859375,-3.65625 l -5.96875,0 c -0.140625,0 -0.328125,0 -0.328125,0.203125 0,0.1875 0.1875,0.1875 0.328125,0.1875 z m 0.015625,1.9375 c 0.140625,0 0.328125,0 0.328125,-0.203125 0,-0.1875 -0.1875,-0.1875 -0.34375,-0.1875 l -5.953125,0 c -0.140625,0 -0.328125,0 -0.328125,0.1875 0,0.203125 0.1875,0.203125 0.328125,0.203125 z m 0,0"
               style="stroke:none" />
          </symbol>
          <symbol
             style="overflow:visible"
             id="textext-984c4736-4"
             overflow="visible">
            <path
               inkscape:connector-curvature="0"
               id="path14155"
               d="m 4.078125,-2.296875 2.78125,0 C 7,-2.296875 7.1875,-2.296875 7.1875,-2.5 7.1875,-2.6875 7,-2.6875 6.859375,-2.6875 l -2.78125,0 0,-2.796875 c 0,-0.140625 0,-0.328125 -0.203125,-0.328125 -0.203125,0 -0.203125,0.1875 -0.203125,0.328125 l 0,2.796875 -2.78125,0 c -0.140625,0 -0.328125,0 -0.328125,0.1875 0,0.203125 0.1875,0.203125 0.328125,0.203125 l 2.78125,0 0,2.796875 c 0,0.140625 0,0.328125 0.203125,0.328125 0.203125,0 0.203125,-0.1875 0.203125,-0.328125 z m 0,0"
               style="stroke:none" />
          </symbol>
          <symbol
             style="overflow:visible"
             id="textext-984c4736-5"
             overflow="visible">
            <path
               inkscape:connector-curvature="0"
               id="path14158"
               d=""
               style="stroke:none" />
          </symbol>
          <symbol
             style="overflow:visible"
             id="textext-984c4736-6"
             overflow="visible">
            <path
               inkscape:connector-curvature="0"
               id="path14161"
               d="m 2.875,-4.1875 c 0.0625,-0.25 0.078125,-0.328125 0.71875,-0.328125 0.21875,0 0.28125,0 0.28125,-0.140625 0,-0.015625 0,-0.109375 -0.109375,-0.109375 -0.15625,0 -0.34375,0.015625 -0.515625,0.03125 -0.171875,0 -0.390625,0 -0.5625,0 -0.140625,0 -0.328125,0 -0.484375,0 -0.140625,0 -0.3125,-0.03125 -0.453125,-0.03125 -0.03125,0 -0.140625,0 -0.140625,0.15625 0,0.09375 0.078125,0.09375 0.21875,0.09375 0.015625,0 0.140625,0 0.265625,0.015625 0.15625,0.015625 0.171875,0.03125 0.171875,0.109375 0,0 0,0.046875 -0.03125,0.140625 l -0.9375,3.703125 C 1.234375,-0.3125 1.21875,-0.25 0.6875,-0.25 c -0.109375,0 -0.203125,0 -0.203125,0.140625 C 0.484375,0 0.5625,0 0.6875,0 l 3.5,0 c 0.1875,0 0.1875,0 0.25,-0.140625 0.0625,-0.1875 0.59375,-1.53125 0.59375,-1.59375 0,-0.015625 -0.015625,-0.09375 -0.125,-0.09375 -0.078125,0 -0.09375,0.03125 -0.140625,0.140625 C 4.5,-1.03125 4.1875,-0.25 2.921875,-0.25 l -0.796875,0 c -0.203125,0 -0.21875,-0.015625 -0.21875,-0.078125 0,0 0,-0.03125 0.03125,-0.140625 z m 0,0"
               style="stroke:none" />
          </symbol>
          <symbol
             style="overflow:visible"
             id="textext-984c4736-7"
             overflow="visible">
            <path
               inkscape:connector-curvature="0"
               id="path14164"
               d=""
               style="stroke:none" />
          </symbol>
          <symbol
             style="overflow:visible"
             id="textext-984c4736-8"
             overflow="visible">
            <path
               inkscape:connector-curvature="0"
               id="path14167"
               d="m 3.515625,-1.265625 -0.234375,0 c -0.015625,0.15625 -0.09375,0.5625 -0.1875,0.625 -0.046875,0.046875 -0.578125,0.046875 -0.6875,0.046875 l -1.28125,0 c 0.734375,-0.640625 0.984375,-0.84375 1.390625,-1.171875 0.515625,-0.40625 1,-0.84375 1,-1.5 0,-0.84375 -0.734375,-1.359375 -1.625,-1.359375 -0.859375,0 -1.453125,0.609375 -1.453125,1.25 0,0.34375 0.296875,0.390625 0.375,0.390625 0.15625,0 0.359375,-0.125 0.359375,-0.375 0,-0.125 -0.046875,-0.375 -0.40625,-0.375 C 0.984375,-4.21875 1.453125,-4.375 1.78125,-4.375 c 0.703125,0 1.0625,0.546875 1.0625,1.109375 0,0.609375 -0.4375,1.078125 -0.65625,1.328125 L 0.515625,-0.265625 C 0.4375,-0.203125 0.4375,-0.1875 0.4375,0 l 2.875,0 z m 0,0"
               style="stroke:none" />
          </symbol>
        </g>
      </defs>
      <g
         id="textext-984c4736-9">
        <g
           id="g14170"
           style="fill:#000000;fill-opacity:1">
          <use
             height="100%"
             width="100%"
             id="use14172"
             y="134.765"
             x="223.43201"
             xlink:href="#textext-984c4736-1" />
        </g>
        <g
           id="g14174"
           style="fill:#000000;fill-opacity:1">
          <use
             height="100%"
             width="100%"
             id="use14176"
             y="134.765"
             x="231.89301"
             xlink:href="#textext-984c4736-3" />
        </g>
        <g
           id="g14178"
           style="fill:#000000;fill-opacity:1">
          <use
             height="100%"
             width="100%"
             id="use14180"
             y="134.765"
             x="242.41151"
             xlink:href="#textext-984c4736-4" />
        </g>
        <g
           id="g14182"
           style="fill:#000000;fill-opacity:1">
          <use
             height="100%"
             width="100%"
             id="use14184"
             y="130.842"
             x="251.354"
             xlink:href="#textext-984c4736-6" />
        </g>
        <path
           inkscape:connector-curvature="0"
           id="path14186"
           transform="matrix(1,0,0,-1,251.354,132.274)"
           d="m 0.00146875,5.625e-4 5.46484325,0"
           style="fill:none;stroke:#000000;stroke-width:0.398;stroke-linecap:butt;stroke-linejoin:miter;stroke-miterlimit:10;stroke-opacity:1" />
        <g
           id="g14188"
           style="fill:#000000;fill-opacity:1">
          <use
             height="100%"
             width="100%"
             id="use14190"
             y="138.2"
             x="252.101"
             xlink:href="#textext-984c4736-8" />
        </g>
      </g>
    </g>
    <g
       ns0:text="$w\\subt{A}$"
       ns0:preamble="/home/homer/misc/physcmds.tex"
       transform="matrix(5,0,0,5,-972.14286,-159.28571)"
       style="fill:#0000ff;stroke:#0000ff"
       id="g5261">
      <defs
         id="defs5263">
        <g
           id="g5265">
          <symbol
             overflow="visible"
             id="textext-95fa754a-0">
            <path
               style="stroke:none;"
               d=""
               id="path5268" />
          </symbol>
          <symbol
             overflow="visible"
             id="textext-95fa754a-1">
            <path
               style="stroke:none;"
               d="M 4.609375 -3.375 C 4.65625 -3.59375 4.75 -3.96875 4.75 -4.03125 C 4.75 -4.203125 4.609375 -4.296875 4.46875 -4.296875 C 4.34375 -4.296875 4.171875 -4.21875 4.09375 -4.015625 C 4.0625 -3.953125 3.59375 -2.046875 3.53125 -1.78125 C 3.453125 -1.484375 3.4375 -1.3125 3.4375 -1.125 C 3.4375 -1.015625 3.4375 -1 3.453125 -0.953125 C 3.21875 -0.421875 2.921875 -0.109375 2.53125 -0.109375 C 1.734375 -0.109375 1.734375 -0.84375 1.734375 -1.015625 C 1.734375 -1.328125 1.78125 -1.71875 2.25 -2.953125 C 2.359375 -3.25 2.421875 -3.390625 2.421875 -3.59375 C 2.421875 -4.03125 2.09375 -4.40625 1.609375 -4.40625 C 0.65625 -4.40625 0.296875 -2.953125 0.296875 -2.875 C 0.296875 -2.765625 0.390625 -2.765625 0.40625 -2.765625 C 0.515625 -2.765625 0.515625 -2.796875 0.5625 -2.953125 C 0.84375 -3.875 1.21875 -4.1875 1.578125 -4.1875 C 1.671875 -4.1875 1.828125 -4.171875 1.828125 -3.859375 C 1.828125 -3.609375 1.71875 -3.328125 1.640625 -3.15625 C 1.203125 -1.984375 1.09375 -1.53125 1.09375 -1.140625 C 1.09375 -0.234375 1.75 0.109375 2.5 0.109375 C 2.671875 0.109375 3.140625 0.109375 3.53125 -0.59375 C 3.796875 0.046875 4.484375 0.109375 4.78125 0.109375 C 5.53125 0.109375 5.96875 -0.515625 6.234375 -1.109375 C 6.5625 -1.890625 6.890625 -3.234375 6.890625 -3.703125 C 6.890625 -4.25 6.625 -4.40625 6.453125 -4.40625 C 6.203125 -4.40625 5.953125 -4.140625 5.953125 -3.921875 C 5.953125 -3.796875 6.015625 -3.734375 6.09375 -3.65625 C 6.203125 -3.546875 6.453125 -3.296875 6.453125 -2.8125 C 6.453125 -2.46875 6.171875 -1.5 5.90625 -0.984375 C 5.65625 -0.453125 5.296875 -0.109375 4.8125 -0.109375 C 4.34375 -0.109375 4.078125 -0.40625 4.078125 -0.984375 C 4.078125 -1.25 4.140625 -1.5625 4.1875 -1.703125 Z M 4.609375 -3.375 "
               id="path5271" />
          </symbol>
          <symbol
             overflow="visible"
             id="textext-95fa754a-2">
            <path
               style="stroke:none;"
               d=""
               id="path5274" />
          </symbol>
          <symbol
             overflow="visible"
             id="textext-95fa754a-3">
            <path
               style="stroke:none;"
               d="M 2.609375 -3.4375 C 2.578125 -3.53125 2.5625 -3.5625 2.4375 -3.5625 C 2.359375 -3.5625 2.3125 -3.546875 2.265625 -3.453125 L 0.984375 -0.515625 C 0.875 -0.265625 0.609375 -0.21875 0.359375 -0.21875 L 0.359375 0 C 0.53125 -0.015625 0.75 -0.015625 0.9375 -0.015625 C 1 -0.015625 1.34375 -0.015625 1.578125 0 L 1.578125 -0.21875 C 1.296875 -0.21875 1.203125 -0.34375 1.203125 -0.4375 C 1.203125 -0.46875 1.21875 -0.484375 1.21875 -0.515625 L 1.484375 -1.109375 L 3.078125 -1.109375 L 3.390625 -0.40625 C 3.421875 -0.359375 3.421875 -0.34375 3.421875 -0.34375 C 3.421875 -0.21875 3.140625 -0.21875 2.984375 -0.21875 L 2.984375 0 C 3.1875 0 3.5625 -0.015625 3.796875 -0.015625 C 4.046875 -0.015625 4.328125 -0.015625 4.53125 0 L 4.53125 -0.21875 L 4.40625 -0.21875 C 4.09375 -0.21875 4.015625 -0.25 3.953125 -0.390625 Z M 2.28125 -2.9375 L 2.984375 -1.328125 L 1.578125 -1.328125 Z M 2.28125 -2.9375 "
               id="path5277" />
          </symbol>
        </g>
      </defs>
      <g
         style="fill:#0000ff"
         id="textext-95fa754a-4">
        <g
           style="fill:#0000ff;fill-opacity:1"
           id="g5280">
          <use
             style="fill:#0000ff"
             xlink:href="#textext-95fa754a-1"
             x="223.432"
             y="134.765"
             id="use5282" />
        </g>
        <g
           style="fill:#0000ff;fill-opacity:1"
           id="g5284">
          <use
             style="fill:#0000ff"
             xlink:href="#textext-95fa754a-3"
             x="230.565"
             y="136.259"
             id="use5286" />
        </g>
      </g>
    </g>
    <g
       id="g5804"
       style="fill:#0000ff;stroke:#0000ff"
       transform="matrix(5,0,0,5,-352.14286,-159.28571)"
       ns0:preamble="/home/homer/misc/physcmds.tex"
       ns0:text="$w\\subt{B}$">
      <defs
         id="defs5806">
        <g
           id="g5808">
          <symbol
             id="textext-82c39de6-0"
             overflow="visible">
            <path
               id="path5811"
               d=""
               style="stroke:none;" />
          </symbol>
          <symbol
             id="textext-82c39de6-1"
             overflow="visible">
            <path
               id="path5814"
               d="M 4.609375 -3.375 C 4.65625 -3.59375 4.75 -3.96875 4.75 -4.03125 C 4.75 -4.203125 4.609375 -4.296875 4.46875 -4.296875 C 4.34375 -4.296875 4.171875 -4.21875 4.09375 -4.015625 C 4.0625 -3.953125 3.59375 -2.046875 3.53125 -1.78125 C 3.453125 -1.484375 3.4375 -1.3125 3.4375 -1.125 C 3.4375 -1.015625 3.4375 -1 3.453125 -0.953125 C 3.21875 -0.421875 2.921875 -0.109375 2.53125 -0.109375 C 1.734375 -0.109375 1.734375 -0.84375 1.734375 -1.015625 C 1.734375 -1.328125 1.78125 -1.71875 2.25 -2.953125 C 2.359375 -3.25 2.421875 -3.390625 2.421875 -3.59375 C 2.421875 -4.03125 2.09375 -4.40625 1.609375 -4.40625 C 0.65625 -4.40625 0.296875 -2.953125 0.296875 -2.875 C 0.296875 -2.765625 0.390625 -2.765625 0.40625 -2.765625 C 0.515625 -2.765625 0.515625 -2.796875 0.5625 -2.953125 C 0.84375 -3.875 1.21875 -4.1875 1.578125 -4.1875 C 1.671875 -4.1875 1.828125 -4.171875 1.828125 -3.859375 C 1.828125 -3.609375 1.71875 -3.328125 1.640625 -3.15625 C 1.203125 -1.984375 1.09375 -1.53125 1.09375 -1.140625 C 1.09375 -0.234375 1.75 0.109375 2.5 0.109375 C 2.671875 0.109375 3.140625 0.109375 3.53125 -0.59375 C 3.796875 0.046875 4.484375 0.109375 4.78125 0.109375 C 5.53125 0.109375 5.96875 -0.515625 6.234375 -1.109375 C 6.5625 -1.890625 6.890625 -3.234375 6.890625 -3.703125 C 6.890625 -4.25 6.625 -4.40625 6.453125 -4.40625 C 6.203125 -4.40625 5.953125 -4.140625 5.953125 -3.921875 C 5.953125 -3.796875 6.015625 -3.734375 6.09375 -3.65625 C 6.203125 -3.546875 6.453125 -3.296875 6.453125 -2.8125 C 6.453125 -2.46875 6.171875 -1.5 5.90625 -0.984375 C 5.65625 -0.453125 5.296875 -0.109375 4.8125 -0.109375 C 4.34375 -0.109375 4.078125 -0.40625 4.078125 -0.984375 C 4.078125 -1.25 4.140625 -1.5625 4.1875 -1.703125 Z M 4.609375 -3.375 "
               style="stroke:none;" />
          </symbol>
          <symbol
             id="textext-82c39de6-2"
             overflow="visible">
            <path
               id="path5817"
               d=""
               style="stroke:none;" />
          </symbol>
          <symbol
             id="textext-82c39de6-3"
             overflow="visible">
            <path
               id="path5820"
               d="M 0.984375 -0.421875 C 0.984375 -0.265625 0.984375 -0.21875 0.578125 -0.21875 L 0.4375 -0.21875 L 0.4375 0 L 2.796875 0 C 3.5625 0 4.171875 -0.421875 4.171875 -0.921875 C 4.171875 -1.28125 3.8125 -1.6875 3 -1.78125 C 3.515625 -1.859375 4 -2.15625 4 -2.546875 C 4 -3.015625 3.375 -3.40625 2.640625 -3.40625 L 0.4375 -3.40625 L 0.4375 -3.1875 L 0.578125 -3.1875 C 0.984375 -3.1875 0.984375 -3.140625 0.984375 -2.984375 Z M 1.46875 -1.859375 L 1.46875 -3 C 1.46875 -3.15625 1.46875 -3.1875 1.71875 -3.1875 L 2.609375 -3.1875 C 3.140625 -3.1875 3.453125 -2.859375 3.453125 -2.546875 C 3.453125 -2.1875 3.015625 -1.859375 2.46875 -1.859375 Z M 1.71875 -0.21875 C 1.46875 -0.21875 1.46875 -0.25 1.46875 -0.40625 L 1.46875 -1.6875 L 2.65625 -1.6875 C 3.3125 -1.6875 3.609375 -1.25 3.609375 -0.921875 C 3.609375 -0.546875 3.1875 -0.21875 2.609375 -0.21875 Z M 1.71875 -0.21875 "
               style="stroke:none;" />
          </symbol>
        </g>
      </defs>
      <g
         id="textext-82c39de6-4"
         style="fill:#0000ff">
        <g
           id="g5823"
           style="fill:#0000ff;fill-opacity:1">
          <use
             id="use5825"
             y="134.765"
             x="223.432"
             xlink:href="#textext-82c39de6-1"
             style="fill:#0000ff" />
        </g>
        <g
           id="g5827"
           style="fill:#0000ff;fill-opacity:1">
          <use
             id="use5829"
             y="136.259"
             x="230.565"
             xlink:href="#textext-82c39de6-3"
             style="fill:#0000ff" />
        </g>
      </g>
    </g>
  </g>
</svg>
